<?xml version="1.0" encoding="UTF-8" standalone="no"?>
<!-- Created with Inkscape (http://www.inkscape.org/) -->

<svg
   width="210mm"
   height="297mm"
   viewBox="0 0 210 297"
   version="1.1"
   id="svg5"
   inkscape:version="1.1.2 (08b2f3d93c, 2022-04-05)"
   sodipodi:docname="drawing.svg"
   xmlns:inkscape="http://www.inkscape.org/namespaces/inkscape"
   xmlns:sodipodi="http://sodipodi.sourceforge.net/DTD/sodipodi-0.dtd"
   xmlns="http://www.w3.org/2000/svg"
   xmlns:svg="http://www.w3.org/2000/svg">
  <sodipodi:namedview
     id="namedview7"
     pagecolor="#ffffff"
     bordercolor="#666666"
     borderopacity="1.0"
     inkscape:pageshadow="2"
     inkscape:pageopacity="0.0"
     inkscape:pagecheckerboard="0"
     inkscape:document-units="mm"
     showgrid="false"
     inkscape:zoom="1.044997"
     inkscape:cx="365.55131"
     inkscape:cy="558.37484"
     inkscape:window-width="1920"
     inkscape:window-height="1027"
     inkscape:window-x="0"
     inkscape:window-y="27"
     inkscape:window-maximized="1"
     inkscape:current-layer="layer1" />
  <defs
     id="defs2" />
  <g
     inkscape:label="Layer 1"
     inkscape:groupmode="layer"
     id="layer1">
    <path
       style="fill:#000000;stroke-width:0.264583"
       d="m 61.944346,222.3383 c -0.448399,-0.1302 -1.033536,-0.47791 -1.300306,-0.77269 -0.519366,-0.57389 -0.517363,-0.58694 0.525916,-3.42657 0.287162,-0.78161 0.515765,-2.73508 0.681178,-5.82083 0.404729,-7.55021 1.248887,-11.16844 4.13917,-17.7413 3.319797,-7.54964 6.456261,-11.43855 11.189103,-13.87339 3.025802,-1.55665 6.045864,-3.85856 8.748189,-6.66791 4.070035,-4.23124 5.678125,-8.60806 4.215823,-11.47441 -0.291356,-0.5711 -1.431269,-3.27503 -2.533134,-6.00873 -2.05858,-5.10727 -2.569414,-7.15155 -1.968111,-7.87607 0.216942,-0.2614 0.232825,-0.40158 0.0455,-0.40158 -0.542629,0 -2.252213,-1.72019 -3.266276,-3.28654 -1.868109,-2.88554 -3.070849,-8.33618 -2.098101,-9.50827 0.47765,-0.57553 1.430446,-0.55164 1.974475,0.0495 0.536286,0.59259 0.548259,1.33234 0.03259,2.01411 -0.61898,0.81836 -0.47674,1.1981 1.047236,2.79583 0.985121,1.0328 1.492578,1.80839 1.616946,2.47132 0.264078,1.40766 0.978969,1.32015 0.753126,-0.0922 -0.110694,-0.69223 -0.06923,-1.05833 0.119856,-1.05833 0.437121,0 0.887473,1.01126 0.705578,1.58436 -0.08893,0.28019 0.14071,1.25923 0.514508,2.19358 0.783095,1.95743 0.831779,2.45533 0.261477,2.67418 -0.227504,0.0873 -0.334002,0.28759 -0.236659,0.44509 0.11411,0.18464 0.358717,0.0913 0.688536,-0.26271 1.055735,-1.1332 1.632392,-0.77721 3.717922,2.29519 1.061871,1.56435 3.062156,4.04832 4.445074,5.51994 1.382917,1.47161 2.895159,3.09899 3.360532,3.6164 0.658656,0.7323 1.176266,1.00927 2.336086,1.25005 0.81947,0.17012 1.54921,0.25005 1.62165,0.17762 0.0724,-0.0724 -0.62162,-0.63504 -1.54234,-1.25023 -2.206399,-1.47423 -3.262053,-2.47982 -4.314197,-4.10961 -0.477303,-0.73935 -1.434817,-1.98267 -2.127814,-2.76295 -0.692997,-0.78027 -1.490123,-1.93893 -1.771391,-2.57478 -0.473575,-1.0706 -0.480139,-1.20381 -0.08877,-1.80112 0.232444,-0.35475 0.581355,-0.64501 0.775356,-0.64501 0.457554,0 2.356932,1.44454 5.288828,4.02234 1.290558,1.13469 2.448438,2.06308 2.573068,2.06308 0.12464,0 0.15546,-0.3558 0.0685,-0.79066 -0.36477,-1.82389 1.5636,-2.90749 4.28041,-2.40526 2.65632,0.49105 3.10205,1.17328 1.84408,2.82256 -0.3638,0.47697 -0.66146,0.93469 -0.66146,1.01716 0,0.0825 0.65986,0.14995 1.46636,0.14995 0.8065,0 2.38408,0.18968 3.50573,0.42151 2.97745,0.61541 4.16517,0.58018 4.9387,-0.14651 0.8677,-0.81517 2.02095,-3.77217 2.19174,-5.61977 l 0.13943,-1.50831 1.22121,-0.0792 c 1.15808,-0.0751 1.25203,-0.14125 1.8175,-1.27976 1.07907,-2.17258 1.94353,-6.21321 1.85988,-8.69335 -0.0598,-1.7742 -0.16807,-2.27958 -0.53795,-2.51219 -0.59886,-0.37661 -1.35602,0.067 -1.47441,0.86379 -0.0469,0.31595 0.10863,1.15851 0.34572,1.87234 0.41307,1.24363 0.4084,1.34235 -0.11162,2.36168 -0.42636,0.83574 -0.4863,1.21217 -0.27958,1.75588 0.40956,1.07723 0.31861,1.60941 -0.42632,2.49472 -0.52109,0.61927 -0.61856,0.90477 -0.39917,1.16912 0.40422,0.48706 0.0725,0.7288 -0.5051,0.36809 -0.36047,-0.22512 -0.73767,-0.21314 -1.53078,0.0486 -0.57884,0.19103 -1.18419,0.26591 -1.34522,0.16639 -0.44862,-0.27726 -0.34964,-1.93737 0.2377,-3.98702 0.81481,-2.84344 1.36315,-6.01656 1.08737,-6.29234 -0.34782,-0.34783 -1.56061,1.84316 -2.45242,4.43048 -1.03405,2.99997 -1.18688,4.83812 -0.62966,7.57269 0.61947,3.04001 0.59418,3.94871 -0.12613,4.53198 -0.32172,0.26051 -0.78011,0.46988 -1.01864,0.46527 -0.31061,-0.006 -0.22719,-0.16246 0.29389,-0.55123 0.85649,-0.63901 0.88126,-0.97644 0.33758,-4.59821 -0.29486,-1.96419 -0.32638,-3.04702 -0.12916,-4.43759 0.51576,-3.63657 3.20488,-9.06194 4.06519,-8.20163 0.37041,0.3704 0.10841,3.10143 -0.53013,5.52614 -1.16858,4.43739 -1.25822,4.85634 -1.07769,5.03687 0.35243,0.35243 2.3527,-0.49431 3.106,-1.31481 0.70936,-0.77264 0.76132,-0.95927 0.61563,-2.21123 -0.12205,-1.04886 -0.0493,-1.55336 0.31256,-2.16585 0.45324,-0.76726 0.45268,-0.86124 -0.0143,-2.40371 -0.38681,-1.27753 -0.42457,-1.7401 -0.18499,-2.26592 0.26263,-0.57642 0.23786,-0.66069 -0.19416,-0.66069 -0.60011,0 -0.73953,-0.33594 -1.24587,-3.0019 -0.48936,-2.57656 -1.65536,-5.78526 -2.05247,-5.64816 -0.1629,0.0562 -0.8982,-0.10327 -1.63402,-0.35447 -2.92723,-0.99934 -5.54569,-0.89134 -6.59864,0.27216 -0.47532,0.52523 -0.46429,0.53028 1.1571,0.53028 2.69864,0 4.12739,0.81222 5.22049,2.96777 0.97282,1.91837 0.83248,2.48731 -0.40054,1.62367 -0.57442,-0.40234 -0.64042,-0.40267 -0.86338,-0.004 -0.13278,0.23726 -0.92118,0.6338 -1.752,0.88121 l -1.5106,0.44982 1.05834,0.19388 c 0.58208,0.10664 1.3935,0.32285 1.80316,0.48048 0.93663,0.3604 0.88752,0.36692 1.08351,-0.14381 0.0908,-0.23672 0.0295,-0.59391 -0.13638,-0.79375 -0.23864,-0.28754 -0.19077,-0.36334 0.22944,-0.36334 0.46242,0 0.52846,0.16836 0.51133,1.30373 l -0.0197,1.30373 -0.79331,-0.41024 c -0.43632,-0.22563 -1.8127,-0.62671 -3.05862,-0.8913 -1.74079,-0.36967 -2.12102,-0.52412 -1.64216,-0.66704 0.51477,-0.15364 0.27031,-0.29722 -1.40567,-0.82563 -1.23336,-0.38887 -1.98997,-0.76293 -1.92975,-0.95406 0.13451,-0.42693 3.28472,-1.48555 4.43207,-1.48938 0.50932,-0.002 1.63421,0.28803 2.49975,0.64384 0.86554,0.3558 1.61799,0.60264 1.67211,0.54852 0.0541,-0.0541 -0.13575,-0.55735 -0.42193,-1.1183 -0.78562,-1.53995 -2.35933,-2.32499 -4.67597,-2.33259 -1.63834,-0.005 -1.85208,-0.0639 -1.85208,-0.50669 0,-0.27533 0.33346,-0.74957 0.74102,-1.05387 0.98689,-0.73681 3.94524,-0.90044 6.13814,-0.3395 l 1.5875,0.40608 -1.03582,-0.9093 c -1.5311,-1.34409 -2.29883,-1.46748 -5.58343,-0.89733 -1.55037,0.26912 -2.98724,0.62904 -3.19303,0.79984 -0.50831,0.42185 -0.47185,1.55135 0.0694,2.14939 0.58527,0.64671 0.0966,1.24453 -0.5163,0.63162 -0.22503,-0.22503 -0.44955,-0.52765 -0.49892,-0.67247 -0.0494,-0.14482 -0.47673,-0.34043 -0.94967,-0.43468 -0.74795,-0.14904 -0.85989,-0.10019 -0.85989,0.37527 0,0.30065 0.10368,0.61071 0.23041,0.68903 0.66844,0.41312 0.41714,4.91258 -0.29911,5.35524 -0.18732,0.11578 -0.21629,-0.12283 -0.0885,-0.72892 0.47743,-2.26401 0.49709,-3.65707 0.061,-4.32262 -0.87816,-1.34026 -0.28438,-2.24078 1.22735,-1.86136 0.55922,0.14036 0.66867,0.054 0.80675,-0.63638 0.0879,-0.43932 0.3958,-0.92509 0.68429,-1.07949 0.75859,-0.40599 4.439,-1.07088 5.92799,-1.07093 1.50118,-5e-5 2.08659,0.26341 3.42219,1.54014 0.5457,0.52165 0.99219,0.85115 0.99219,0.73222 0,-0.2222 -1.12317,-3.9475 -2.32043,-7.69636 -0.59262,-1.85561 -0.87464,-2.31503 -2.28664,-3.72497 -2.51803,-2.51437 -4.97637,-3.01307 -10.27991,-2.08536 -10.331472,1.80721 -13.641518,4.32815 -15.966732,12.16033 -0.629547,2.12055 -0.703517,2.78678 -0.675643,6.08541 0.01722,2.0373 -0.09747,4.54393 -0.254862,5.57031 l -0.286163,1.86614 1.068705,1.65349 c 0.587788,0.90942 1.512872,2.72508 2.055741,4.0348 1.132409,2.73203 1.662996,3.20457 2.719078,2.42159 1.233215,-0.9143 2.214057,-2.57467 2.348696,-3.97587 0.112815,-1.1741 0.05492,-1.35404 -0.601898,-1.87069 -0.399706,-0.3144 -1.032143,-0.57164 -1.405425,-0.57164 -0.443277,0 -0.588745,-0.0899 -0.419372,-0.25932 0.393303,-0.3933 2.142088,0.17984 2.616837,0.85764 0.601353,0.85855 0.494176,1.98974 -0.359497,3.79422 -0.808045,1.70804 -1.942901,2.75393 -2.980838,2.74716 -0.959821,-0.006 -1.224045,-0.29108 -1.967534,-2.12082 -1.499219,-3.6896 -3.156559,-6.51264 -3.391863,-5.77756 -0.0637,0.19899 -0.253156,0.80829 -0.421016,1.35399 -0.310534,1.00954 -0.614241,1.23143 -0.947481,0.69223 -0.286925,-0.46425 -0.908936,-3.97621 -0.749834,-4.23364 0.229005,-0.37054 1.075946,-0.26243 1.44703,0.18469 0.657804,0.79261 0.884986,-0.42577 1.063826,-5.70526 0.15263,-4.50571 0.263594,-5.45511 0.875842,-7.49362 1.93993,-6.45911 4.851556,-9.12521 12.015793,-11.00258 5.49848,-1.44085 10.25884,-1.69669 12.2831,-0.66012 2.84328,1.45596 4.71704,4.19833 5.76719,8.4407 0.3242,1.30968 1.09982,3.75047 1.7236,5.42396 1.23375,3.30994 1.7792,5.12795 2.24112,7.46986 0.16455,0.83421 0.38991,1.57282 0.50082,1.64137 0.11091,0.0685 0.57031,-0.13728 1.02089,-0.45739 0.66818,-0.47469 0.7927,-0.71477 0.67526,-1.30198 -0.27465,-1.37323 0.17848,-3.15445 1.01538,-3.99135 0.67961,-0.67961 0.81975,-1.07585 1.02882,-2.90895 0.51224,-4.49124 -0.65339,-7.91299 -4.38154,-12.86215 -2.63691,-3.50053 -6.0624,-6.61127 -6.64198,-6.03169 -0.0922,0.0922 -0.17358,1.10534 -0.18096,2.25153 -0.0179,2.77528 0.70893,4.3215 2.59667,5.52423 3.13904,1.99997 3.57188,2.93387 3.57188,7.70679 0,2.90576 0.37631,4.11449 1.38016,4.4331 0.25956,0.0824 0.47192,0.26082 0.47192,0.39654 0,0.77327 -1.54321,-0.37637 -2.01232,-1.49912 -0.24324,-0.58215 -0.37091,-1.945 -0.37474,-4.00032 -0.007,-3.89658 -0.42503,-5.04088 -2.15712,-5.90847 -1.48595,-0.74431 -2.77349,-1.97096 -3.45781,-3.2943 -0.43778,-0.84656 -0.54512,-1.53482 -0.53643,-3.43958 0.007,-1.43749 -0.10301,-2.4529 -0.27647,-2.56203 -0.20274,-0.12756 -0.14567,-1.02997 0.19386,-3.06534 0.28818,-1.7276 0.44012,-3.697555 0.37882,-4.911531 -0.089,-1.761927 -0.19323,-2.117849 -0.79735,-2.721967 -0.87037,-0.870369 -1.17013,-0.691788 -1.39884,0.833362 -0.23895,1.593435 -1.4214,2.961512 -2.74483,3.175736 -0.53459,0.08653 -1.26844,0.27928 -1.63079,0.42833 -0.63898,0.26284 -0.64343,0.28225 -0.14787,0.64462 0.31168,0.22791 1.15928,0.37361 2.17337,0.37361 1.60096,0 1.67854,0.0312 2.09816,0.8426 0.32321,0.62503 0.40359,1.29169 0.31128,2.5818 -0.31013,4.33447 -2.65173,5.06114 -6.38527,1.98154 -1.85688,-1.53164 -3.55646,-2.49552 -4.40027,-2.49552 -1.810351,0 -4.449761,2.25084 -6.202276,5.28918 -0.650658,1.12805 -1.535684,2.34775 -1.966719,2.71045 -0.431038,0.36269 -1.920399,1.09987 -3.309694,1.63818 -4.202168,1.6282 -6.107343,3.86407 -6.093717,7.15142 0.003,0.7341 0.09035,1.66215 0.194027,2.06233 0.112524,0.43435 0.08186,0.72761 -0.07609,0.72761 -0.830731,0 -0.85597,-3.94117 -0.03608,-5.63483 1.119349,-2.31227 3.020181,-3.745 6.74737,-5.08577 1.713409,-0.61636 3.144779,-1.94945 4.18135,-3.89425 1.175105,-2.20472 2.888292,-4.01819 4.576106,-4.84396 1.922073,-0.94038 3.036863,-0.74837 5.199793,0.89563 3.55316,2.70066 4.01976,2.97303 4.95968,2.89508 1.30761,-0.10844 1.86531,-1.00675 2.05894,-3.31644 0.21525,-2.5675 -0.18468,-3.23464 -1.82805,-3.04941 -1.30461,0.14704 -3.11502,-0.47552 -3.11502,-1.0712 0,-0.59898 0.60533,-0.949902 2.14087,-1.241112 1.81112,-0.343471 2.37258,-0.91675 2.75025,-2.808117 0.16661,-0.834417 0.49147,-1.636044 0.72189,-1.781395 0.59339,-0.374297 1.74414,0.438228 2.2143,1.563475 0.52447,1.255232 0.46299,4.821279 -0.12956,7.515139 -0.40612,1.84634 -0.42283,2.14576 -0.096,1.71979 1.58051,-2.05962 2.98183,-7.187389 2.46483,-9.019403 -0.44888,-1.590601 -0.79876,-2.068925 -3.57767,-4.89104 -3.22925,-3.279454 -3.65414,-3.516579 -5.875,-3.278745 -1.426,0.152712 -1.85564,0.09483 -2.74777,-0.370174 -1.38408,-0.721424 -1.7887,-0.695263 -1.99558,0.129029 -0.39593,1.577518 0.49544,4.935626 1.93709,7.297697 1.64122,2.689046 1.43378,4.422386 -0.65584,5.480146 -1.17937,0.59698 -1.85091,0.74552 -4.87451,1.07819 -2.64142,0.29062 -3.983304,0.8778 -5.86586,2.56678 -0.706964,0.63427 -1.510636,1.15322 -1.785937,1.15322 -0.341501,0 -0.501841,0.18916 -0.504603,0.59531 -0.0058,0.84581 -0.216358,1.07097 -1.800667,1.92517 -2.911152,1.56959 -6.494132,5.49672 -8.077697,8.85357 -1.094164,2.31941 -1.083133,4.18944 0.04666,7.91148 1.27843,4.21172 1.439169,8.7603 0.309576,8.7603 -0.135927,0 -0.666041,-0.65484 -1.178029,-1.45521 -1.652727,-2.58362 -2.171199,-1.79962 -1.906553,2.88299 0.150493,2.66277 1.094338,8.056 1.766017,10.09121 0.146087,0.44265 0.622467,1.01562 1.058617,1.27326 0.935442,0.55258 1.756823,1.95747 1.370383,2.34391 -0.414288,0.41429 -1.315532,-0.22628 -1.882804,-1.33822 -0.630375,-1.23565 -0.874168,-1.43106 -2.533743,-2.03091 -0.727604,-0.26299 -1.603334,-0.72621 -1.946067,-1.02937 -0.557399,-0.49304 -0.609963,-0.71952 -0.498173,-2.14648 0.07111,-0.90773 0.383287,-2.10508 0.724312,-2.77813 0.593948,-1.17221 0.594249,-1.1783 0.03353,-0.67734 -0.311193,0.27802 -0.65361,0.41769 -0.760928,0.31037 -0.188123,-0.18812 1.44757,-1.72029 1.852014,-1.73479 0.396396,-0.0142 0.179758,0.78249 -0.727605,2.67583 -1.44803,3.02153 -1.295065,3.66948 1.122322,4.75409 0.937822,0.42077 1.748283,0.76504 1.801023,0.76504 0.05274,0 -0.08363,-0.50601 -0.303044,-1.12448 -0.562726,-1.58616 -1.400209,-6.66849 -1.59919,-9.7048 -0.323808,-4.94108 0.931345,-5.93782 3.040773,-2.41474 0.462155,0.77187 0.573283,0.83897 0.726831,0.43883 0.337839,-0.8804 -0.135255,-4.77524 -0.967435,-7.9646 -1.047084,-4.01297 -1.006915,-5.8155 0.186219,-8.35603 1.387181,-2.95372 5.027305,-6.88804 7.959629,-8.60292 1.097307,-0.64173 1.658914,-1.13751 1.658914,-1.46446 0,-0.27187 -0.09261,-0.4943 -0.205804,-0.4943 -0.113191,0 -1.631238,1.18925 -3.373437,2.64278 -3.549502,2.96137 -5.227767,4.00188 -5.697339,3.53231 -0.396711,-0.39671 -0.04227,-1.04398 1.900068,-3.46986 2.005187,-2.50437 2.696776,-3.71988 3.52276,-6.19146 0.728684,-2.18044 0.901423,-5.166809 0.418164,-7.229394 -0.493512,-2.106342 0.795086,-4.587548 3.399118,-6.545034 2.206749,-1.658843 4.170645,-2.387802 6.783345,-2.517839 1.924405,-0.09578 2.253903,-0.03563 3.62753,0.662239 1.35106,0.686398 1.55336,0.7251 1.91257,0.36589 0.35921,-0.35921 0.54922,-0.340647 1.79642,0.175491 1.1605,0.480259 1.69417,0.549099 3.17777,0.409919 1.6515,-0.15493 1.8602,-0.1138 2.82886,0.557483 1.63701,1.134451 6.08426,5.856513 6.55237,6.957278 0.87113,2.048448 0.0998,6.536107 -1.6437,9.563627 -0.36818,0.63931 -0.63686,1.17509 -0.59707,1.19062 3.54235,1.3829 9.23802,8.34702 11.07328,13.53936 0.58724,1.66139 0.77959,5.25344 0.39805,7.43318 -0.16483,0.94169 -0.12096,1.1233 0.30387,1.25814 1.00407,0.31868 2.71593,2.3108 3.64426,4.24088 1.37281,2.85418 1.78879,5.15846 1.65057,9.14314 -0.11035,3.1813 -0.55081,5.11311 -1.5064,6.60692 -0.50104,0.78324 -0.54177,0.05 -0.06,-1.07936 1.3298,-3.11718 1.55519,-7.21901 0.61257,-11.14808 -0.68235,-2.84418 -1.54866,-4.59863 -3.03843,-6.15345 -1.55468,-1.62255 -1.86456,-1.55864 -2.24494,0.46303 -0.17112,0.90951 -0.38418,1.92154 -0.47347,2.24896 -0.13412,0.49189 -0.0566,0.59532 0.44634,0.59532 0.9125,0 3.00229,2.30169 3.51153,3.8676 0.57856,1.77905 0.8034,3.80789 0.58407,5.27046 -0.26383,1.75933 -0.50434,1.23952 -0.43373,-0.93742 0.0974,-3.00424 -1.089,-6.15958 -2.7172,-7.22642 -0.88474,-0.5797 -2.25586,-0.55773 -3.04455,0.0488 l -0.62689,0.4821 0.77423,-0.11364 c 1.26092,-0.18506 1.53933,0.42451 1.52825,3.34598 -0.0106,2.78136 -0.6292,5.97455 -1.56946,8.10098 -0.81388,1.84062 -1.32838,2.29437 -2.49187,2.19765 -0.8554,-0.0711 -0.94746,-0.0175 -0.87388,0.50887 0.11096,0.79375 -0.60802,3.52474 -1.26909,4.82054 -0.29509,0.57843 -0.9442,1.45937 -1.44247,1.95764 -1.00906,1.00906 -1.73631,3.03079 -1.73631,4.82691 v 1.12485 l 2.18282,1.33216 c 3.06313,1.86942 5.01172,3.3909 7.57401,5.91387 2.75774,2.71542 4.67447,5.17216 8.51459,10.91344 1.65467,2.47386 4.78906,7.05776 6.96531,10.18646 2.17626,3.1287 4.48803,6.45654 5.13729,7.3952 0.64926,0.93866 1.9686,2.80993 2.93187,4.15837 5.50697,7.70898 5.71852,8.0256 5.36232,8.0256 -0.13851,0 -0.86628,-0.86321 -1.61726,-1.91823 -0.75097,-1.05503 -2.17584,-3.05524 -3.16635,-4.44491 -0.99052,-1.38967 -2.3286,-3.29467 -2.9735,-4.23333 -0.64491,-0.93866 -1.63644,-2.3615 -2.20342,-3.16187 -2.96287,-4.18252 -7.52369,-10.80357 -10.86185,-15.76839 -5.40853,-8.04409 -7.89789,-10.93161 -12.22479,-14.18003 -2.45616,-1.84397 -6.95721,-4.55357 -7.47312,-4.49877 -4.5242,0.48055 -4.4777,1.12513 0.37574,5.20754 1.61235,1.35622 3.30667,2.86425 3.76515,3.35119 1.97069,2.09302 2.74935,4.00193 1.78361,4.37252 -1.25652,0.48217 -7.32335,-2.94301 -9.88219,-5.57923 -0.64876,-0.66839 -1.33492,-1.21524 -1.52479,-1.21524 -0.18988,0 -0.60553,0.53578 -0.92368,1.19062 -0.49152,1.01171 -1.00217,1.54649 -1.00217,1.04954 0,-0.54219 1.41003,-2.76933 1.7533,-2.76933 0.2318,0 1.09001,0.61102 1.90713,1.35781 3.08583,2.82028 7.58482,5.52136 9.19652,5.52136 0.81343,0 0.80061,-0.17099 -0.12011,-1.60185 -0.74008,-1.15014 -2.93096,-3.3238 -7.00453,-6.94948 -2.29264,-2.04056 -2.71132,-2.90526 -1.77414,-3.66415 0.3291,-0.26649 0.97213,-0.48635 1.42895,-0.48857 0.45682,-0.002 0.99675,-0.10927 1.19984,-0.23787 0.45901,-0.29064 -0.0491,-0.56461 -4.17028,-2.24843 -1.654,-0.6758 -3.49947,-1.61597 -4.10104,-2.08928 -0.60157,-0.4733 -1.76052,-1.30558 -2.57543,-1.84951 -0.81491,-0.54393 -2.24366,-1.66431 -3.174998,-2.48975 -2.790931,-2.47356 -2.471309,-2.31893 -3.389754,-1.63989 -0.940409,0.69527 -1.506477,0.4316 -0.618689,-0.28818 0.327422,-0.26546 0.595313,-0.59395 0.595313,-0.72997 0,-0.37842 -0.916065,-1.12307 -1.381588,-1.12307 -1.15266,0 -0.502637,2.08586 1.303663,4.18334 0.712927,0.82786 1.810049,2.24474 2.438042,3.14863 0.842333,1.21239 1.810243,2.11927 3.690321,3.45764 1.40169,0.99782 2.75688,1.89164 3.01154,1.98628 0.25466,0.0947 0.46302,0.29261 0.46302,0.43993 0,0.28825 -0.009,0.29107 -4.36562,1.32473 -2.748752,0.65222 -2.905475,0.72521 -2.821401,1.31394 0.07688,0.53832 0.0047,0.60077 -0.529167,0.45783 -0.340002,-0.091 -0.714967,-0.16714 -0.833255,-0.16913 -0.118287,-0.002 -0.177818,-0.26085 -0.132291,-0.57525 0.06542,-0.45177 -0.38476,-0.91078 -2.147009,-2.18908 -2.530041,-1.83525 -3.639167,-3.28398 -5.178613,-6.76428 -1.05418,-2.38324 -1.588336,-3.175 -2.141993,-3.175 -0.661961,0 -0.626033,0.4985 0.174517,2.42128 0.445238,1.06939 1.160539,2.83731 1.589553,3.92872 1.777008,4.52068 2.032852,4.86123 5.206635,6.93028 0.909505,0.59292 1.653646,1.18117 1.653646,1.30721 0,0.44807 -0.687007,0.21673 -2.017787,-0.67947 l -1.349264,-0.90865 1.586833,2.43 c 2.493825,3.81893 3.272753,4.6633 5.06857,5.49443 0.883542,0.40891 4.582996,1.59848 8.221026,2.64349 7.19201,2.06588 8.36895,2.54763 10.22662,4.18602 1.89287,1.66944 2.4341,2.55756 8.88517,14.58002 3.21827,5.9977 6.49891,12.01703 9.10763,16.71074 1.04331,1.87716 2.15273,3.42535 3.31798,4.63021 2.21703,2.2924 3.84036,5.51832 3.02918,6.01966 -0.36768,0.22724 -1.17376,-0.83963 -3.23356,-4.27971 -1.76334,-2.94497 -2.15321,-3.41317 -4.21479,-5.06162 -2.02903,-1.62242 -8.0935,-6.14664 -9.6049,-7.16545 -1.489,-1.00371 -8.51554,-6.41362 -10.76646,-8.28936 -1.38245,-1.15203 -4.29948,-3.84797 -6.48229,-5.99099 -6.10675,-5.99542 -9.97757,-8.59772 -15.574275,-10.47035 -5.786934,-1.93628 -9.803918,-1.68617 -15.002805,0.9341 -4.563392,2.29999 -8.21236,7.42836 -11.782952,16.56015 -1.812776,4.63617 -2.296136,7.18704 -2.762544,14.57896 -0.220848,3.50013 -0.416079,4.82779 -0.928034,6.31106 -0.356591,1.03313 -0.648348,2.01525 -0.648348,2.18247 0,0.16723 0.386953,0.51359 0.859896,0.7697 0.738551,0.39994 1.550627,0.46183 5.754687,0.43861 4.788068,-0.0265 19.856373,-0.78316 21.166667,-1.06296 0.618294,-0.13203 0.582154,-0.18177 -0.553861,-0.76223 -3.30845,-1.69052 -4.207861,-5.02825 -2.277758,-8.4528 2.684624,-4.76329 10.623286,-1.71646 20.492557,7.86495 2.83022,2.74768 2.33177,2.73627 -0.66146,-0.0151 -7.832989,-7.20015 -13.644781,-10.47833 -16.983079,-9.57942 -1.783099,0.48013 -3.164912,2.53103 -3.374364,5.00825 -0.111255,1.31582 -0.03484,1.61845 0.694687,2.75111 0.65999,1.02471 1.166826,1.43711 2.601381,2.11667 l 1.781688,0.84401 4.497917,-0.0874 c 2.887422,-0.0561 4.773864,0.0185 5.2686,0.20827 2.09019,0.8019 -1.929976,1.29144 -6.689555,0.8146 -2.938979,-0.29444 -4.425302,-0.26731 -12.337378,0.22525 -9.222708,0.57415 -17.623355,0.69512 -19.07152,0.27464 z m 36.203291,-0.96895 c -0.763985,-0.0534 -2.014141,-0.0534 -2.778126,0 -0.763984,0.0534 -0.138906,0.0972 1.389063,0.0972 1.527969,0 2.153047,-0.0437 1.389063,-0.0972 z m 42.706733,-2.09374 c -0.3599,-0.70569 -1.09262,-1.75933 -1.62826,-2.34141 l -0.9739,-1.05833 0.72618,1.32291 c 1.69058,3.07978 3.29117,4.85174 1.87598,2.07683 z m -5.76183,-7.83152 c -0.3138,-0.61846 -1.43061,-2.67229 -2.48179,-4.56406 -1.05119,-1.89177 -2.8072,-5.10646 -3.90225,-7.14375 -2.25743,-4.19985 -6.74745,-12.50146 -7.94219,-14.68437 -1.93051,-3.52725 -3.87641,-5.60659 -6.3045,-6.73687 -1.82162,-0.84797 -2.19682,-0.85728 -1.99409,-0.0495 0.0858,0.34206 -0.21408,2.09823 -0.66652,3.9026 -0.60556,2.41504 -0.8567,4.11842 -0.95182,6.45567 -0.0711,1.74625 -0.0608,3.11047 0.0228,3.0316 0.0836,-0.0789 0.2884,-1.03137 0.4551,-2.11667 0.3554,-2.31386 0.56041,-2.6367 1.66941,-2.62891 2.41908,0.017 7.37181,3.73161 10.14937,7.6122 1.98102,2.76771 2.66443,6.05904 1.83224,8.82418 l -0.35526,1.18046 1.08286,0.77076 c 3.08519,2.19594 9.12624,6.74978 9.27634,6.99264 0.0947,0.15319 0.28659,0.27853 0.42649,0.27853 0.13989,0 -0.002,-0.50601 -0.3162,-1.12448 z m -10.34681,-11.17864 c -0.0936,-1.70417 -0.2779,-2.43391 -0.94565,-3.74456 -2.09382,-4.10974 -8.34423,-9.32558 -10.83249,-9.03948 -0.68542,0.0788 -0.75836,0.21446 -1.1724,2.18056 -0.88774,4.21545 -1.5439,4.35823 -1.54077,0.33526 0.002,-1.90999 0.20317,-3.62233 0.69152,-5.87136 0.37918,-1.74626 0.74857,-3.90779 0.82087,-4.80341 0.12071,-1.49546 0.0805,-1.66044 -0.49308,-2.02082 -0.34349,-0.21583 -1.08171,-0.47272 -1.64049,-0.57086 -0.55878,-0.0981 -2.96496,-0.75718 -5.34706,-1.46452 -2.3821,-0.70735 -4.961013,-1.35854 -5.730913,-1.44708 -1.602841,-0.18435 -2.678578,0.22548 -2.800451,1.0669 -0.04274,0.2951 0.463272,1.92013 1.124479,3.61116 0.661207,1.69104 1.202196,3.30786 1.202196,3.59294 0,0.34825 0.581998,0.89747 1.773798,1.67388 2.397571,1.56192 3.342831,2.36987 7.354331,6.28606 4.6444,4.53406 9.83866,8.92125 15.21083,12.84742 l 1.71708,1.25491 0.36224,-0.88517 c 0.24437,-0.59713 0.3244,-1.57392 0.24596,-3.00183 z M 95.432768,178.8723 c -2.243595,-4.44637 -3.304675,-6.27091 -4.372213,-7.51809 -1.082921,-1.26515 -1.505307,-1.38172 -1.897414,-0.52366 -0.663239,1.45139 -5.045488,5.8865 -7.882692,7.97777 -0.483568,0.35644 -0.43797,0.3692 0.529167,0.14813 3.240434,-0.74072 8.542676,0.0695 12.768577,1.95103 1.126448,0.50155 2.12067,0.92485 2.209379,0.94067 0.08871,0.0158 -0.520951,-1.32332 -1.354804,-2.97585 z m 0.816867,-0.68114 c -0.593209,-1.47134 -1.078561,-2.95191 -1.078561,-3.29016 0,-0.81901 0.774203,-1.47792 1.963243,-1.67088 l 0.970539,-0.15749 -0.942123,-0.67033 c -0.940723,-0.66934 -1.294249,-1.14681 -4.34149,-5.86359 l -1.618919,-2.5059 -0.0086,1.0507 c -0.0048,0.57788 -0.248518,1.70553 -0.541706,2.5059 -0.86896,2.37214 -0.862758,2.31696 -0.28117,2.50155 0.83031,0.26353 2.721441,3.11571 4.814438,7.26108 1.043911,2.06756 1.953128,3.70409 2.020485,3.63674 0.06735,-0.0674 -0.362889,-1.32629 -0.956098,-2.79762 z m 4.441265,-15.54903 3.27087,-0.72356 -1.75203,-0.32336 c -1.98445,-0.36625 -2.915928,-0.93429 -4.171043,-2.54363 -0.48019,-0.6157 -1.714701,-1.96045 -2.743364,-2.98831 -1.809554,-1.80816 -4.35392,-5.16269 -5.25521,-6.92855 -0.24139,-0.47294 -0.627332,-0.8599 -0.857652,-0.8599 -0.4103,0 -0.401436,0.33552 0.04928,1.86597 0.06653,0.22591 -0.0453,0.63813 -0.248518,0.91605 -0.304302,0.41616 -0.440391,0.44645 -0.771435,0.17171 -0.28276,-0.23467 -0.454742,-0.24817 -0.579977,-0.0455 -0.09792,0.15843 0.120544,0.52291 0.485463,0.80995 0.368741,0.29006 0.86293,1.13749 1.112446,1.90761 0.488426,1.50753 1.67967,3.7918 2.692135,5.16231 0.549801,0.74423 4.9643,4.28428 5.359675,4.298 0.07617,0.003 1.610379,-0.3208 3.40936,-0.71875 z m 14.87392,-3.45358 c 0.22973,-1.1276 0.5156,-2.27219 0.63525,-2.54353 0.20032,-0.45425 0.11482,-0.48104 -1.07916,-0.33814 -0.71319,0.0854 -3.1177,0.18831 -5.34334,0.22876 -3.82967,0.0696 -4.01741,0.0973 -3.50154,0.51624 0.29981,0.24348 1.62791,0.83002 2.95134,1.30342 1.32343,0.4734 3.13724,1.31039 4.0307,1.85997 0.89345,0.54959 1.68399,1.00469 1.75675,1.01135 0.0728,0.007 0.32026,-0.91047 0.55,-2.03807 z m -4.17015,-3.24081 c 0.87543,0 1.534,-0.0577 1.46351,-0.12818 -0.0705,-0.0705 -1.37027,-0.26052 -2.88837,-0.42228 -1.51811,-0.16177 -2.87348,-0.40192 -3.01194,-0.53368 -0.15601,-0.14846 0.14169,-0.64249 0.78278,-1.29902 0.93948,-0.96212 0.99642,-1.09757 0.61971,-1.47428 -0.96379,-0.96379 -4.03782,-1.17947 -5.08381,-0.35669 -0.83441,0.65634 -0.88079,1.39612 -0.16152,2.57587 0.84302,1.38272 2.36709,1.95718 4.72982,1.78279 1.07698,-0.0795 2.6744,-0.14453 3.54982,-0.14453 z m -24.024727,-5.03368 c 0.247563,-0.40057 -0.389184,-2.11007 -0.78595,-2.11007 -0.72593,0 -0.983949,0.69856 -0.677868,1.83525 0.255873,0.95025 0.352573,1.04912 0.794652,0.81252 0.276829,-0.14815 0.577953,-0.39012 0.669166,-0.5377 z m 1.17402,-1.48657 c -0.298231,-0.90365 -0.359924,-0.95514 -0.572792,-0.47809 -0.312187,0.69964 0.210738,2.18709 0.623711,1.77411 0.201356,-0.20135 0.186626,-0.57625 -0.05092,-1.29602 z m -6.982683,-1.62371 c -0.412191,-0.39577 -0.655658,-0.54099 -0.541038,-0.32271 0.349488,0.66555 0.998278,1.3345 1.148548,1.18423 0.07806,-0.0781 -0.195318,-0.46574 -0.60751,-0.86152 z m 5.671069,-0.38885 c -7.94e-4,-0.1819 -0.268565,-0.98558 -0.595313,-1.78594 -0.490196,-1.20073 -0.694219,-1.44095 -1.166674,-1.37364 -0.572265,0.0815 -0.624724,1.9e-4 -0.991124,-1.53678 -0.08673,-0.3638 -0.812171,-1.35977 -1.612093,-2.21326 -0.799923,-0.85349 -1.454404,-1.78105 -1.454404,-2.06123 0,-0.28019 0.26771,-0.87153 0.59491,-1.3141 0.585113,-0.7914 0.58646,-0.81083 0.08172,-1.1799 -0.677543,-0.49544 -1.375005,-0.47627 -1.574366,0.0433 -0.754319,1.96572 1.333825,8.1384 3.536394,10.45379 1.026208,1.07876 1.76358,1.18918 1.455314,0.21793 -0.08849,-0.2788 -0.04654,-0.5069 0.09322,-0.5069 0.349496,0 0.591368,0.70861 0.406403,1.19062 -0.111374,0.29023 0.03305,0.39688 0.537469,0.39688 0.379373,0 0.689216,-0.14883 0.688541,-0.33073 z m -1.460471,-8.93311 c 0.147929,-0.78958 0.06739,-1.02849 -0.535165,-1.5875 l -0.709303,-0.65804 0.17662,1.19063 c 0.352192,2.37419 0.462751,2.75554 0.684073,2.35951 0.115302,-0.20633 0.288001,-0.7934 0.383775,-1.3046 z m 39.404962,-7.63308 c 0.26371,-1.38398 0.28094,-1.88641 0.0623,-1.81508 -0.44291,0.14444 -0.93176,1.73545 -0.94892,3.08835 -0.0217,1.71068 0.44611,1.03891 0.88667,-1.27327 z m -11.1542,1.008 c 1.01896,-0.28298 1.26597,-0.61816 0.63422,-0.86059 -0.19689,-0.0755 -0.55291,0.0903 -0.79116,0.36857 -0.77646,0.90683 -2.81963,0.48689 -2.81963,-0.57954 0,-0.43517 -0.11349,-0.50296 -0.59531,-0.35556 -1.30672,0.39977 -1.43209,0.59332 -0.59531,0.91909 0.43656,0.16995 1.03187,0.4089 1.32292,0.531 0.73515,0.3084 1.6785,0.30078 2.84427,-0.023 z m -0.47827,-0.75516 c 0.0815,-0.13195 -0.11979,-0.17083 -0.44741,-0.0864 -0.51296,0.13219 -0.54898,0.0965 -0.25937,-0.25694 0.28136,-0.34339 0.25096,-0.43276 -0.18614,-0.54706 -0.28735,-0.0752 -0.73634,0.0271 -0.99777,0.22723 -0.41446,0.31728 -0.4245,0.39786 -0.0784,0.62942 0.49673,0.33238 1.77107,0.35423 1.96913,0.0338 z M 83.014586,111.27036 c 0.646954,-0.4161 2.247842,-1.68158 3.55753,-2.81219 1.309687,-1.1306 2.749634,-2.23211 3.199884,-2.44778 0.805317,-0.38576 0.813041,-0.40781 0.474636,-1.355 -1.075648,-3.01074 0.152778,-8.345102 2.521622,-10.949997 0.695198,-0.764471 1.579113,-1.89257 1.964256,-2.506887 0.867981,-1.384454 1.627473,-1.785398 4.107389,-2.168334 1.725667,-0.266469 2.945757,-0.650927 2.945757,-0.928231 0,-0.226198 -2.344788,-1.161591 -3.307294,-1.31936 -3.546989,-0.581404 -8.918237,2.370424 -10.611723,5.83179 -0.682702,1.395392 -0.702054,1.542889 -0.410203,3.126822 0.459225,2.492302 0.373664,4.351517 -0.308676,6.707327 -0.687525,2.37372 -1.692227,4.17387 -3.788555,6.78808 -2.341576,2.92004 -2.417286,3.36683 -0.344623,2.03376 z m 9.927006,-6.88813 c 2.028303,-1.85376 3.331035,-2.40346 6.379445,-2.69187 3.102003,-0.29348 4.212853,-0.6194 5.176603,-1.51883 1.03337,-0.964409 0.93352,-1.764133 -0.61249,-4.905361 -0.90378,-1.83633 -1.44505,-3.345719 -1.66245,-4.635968 -0.17729,-1.052222 -0.3989,-1.83658 -0.49246,-1.743017 -0.0936,0.09356 -1.26895,0.334262 -2.611969,0.534888 -2.712445,0.405197 -3.13155,0.665374 -4.495334,2.790644 -0.441418,0.68789 -1.083067,1.434493 -1.425888,1.659118 -1.359566,0.890822 -2.788475,5.07484 -2.788475,8.164986 0,1.65019 0.514734,3.64008 0.941589,3.64008 0.09616,0 0.812305,-0.5826 1.591429,-1.29467 z m 7.322708,43.58716 c -1.564859,-0.52481 -2.447393,-0.95737 -2.447393,-1.19955 0,-0.43086 2.393653,-3.04192 3.531203,-3.85192 0.58892,-0.41935 1.22237,-0.5482 2.88424,-0.58665 2.07924,-0.0481 2.16711,-0.0242 3.71774,1.01126 0.87348,0.58329 2.07625,1.53666 2.6728,2.11859 0.95628,0.93285 1.0228,1.07167 0.56207,1.173 -0.28741,0.0632 -0.6446,0.28105 -0.79375,0.48407 -0.14915,0.20302 -1.10462,0.66287 -2.12326,1.02188 -2.64633,0.93269 -4.85403,0.88561 -8.00365,-0.17068 z m 7.73441,-0.25167 c 1.56135,-0.59236 2.16247,-0.94515 1.9583,-1.14932 -0.0812,-0.0812 -0.85169,-0.27943 -1.71213,-0.44043 -1.98771,-0.37194 -5.89528,-0.15194 -7.78214,0.43813 l -1.455208,0.45508 1.058338,0.39385 c 3.23933,1.20549 5.34176,1.28571 7.93284,0.30269 z m -7.46322,-2.00949 c 1.72697,-0.88452 2.11609,-0.97984 4.02829,-0.98685 1.70412,-0.006 2.4653,0.13301 3.90539,0.71451 0.9838,0.39725 1.92171,0.72227 2.08424,0.72227 0.35778,0 -2.80905,-2.56459 -3.74067,-3.02931 -0.40729,-0.20316 -1.46703,-0.30145 -2.75789,-0.25578 l -2.09643,0.0742 -1.87004,1.87004 c -1.028518,1.02852 -1.778792,1.87004 -1.667275,1.87004 0.111519,0 1.062992,-0.44059 2.114385,-0.97909 z m 2.50143,-0.23909 c -0.0879,-0.0879 -0.31613,-0.0973 -0.50712,-0.0209 -0.21107,0.0845 -0.14838,0.14716 0.15985,0.15985 0.27891,0.0115 0.43519,-0.0511 0.34727,-0.13896 z m 2.25447,-0.29146 c -0.32743,-0.0631 -0.86321,-0.0631 -1.19063,0 -0.32742,0.0631 -0.0595,0.11466 0.59531,0.11466 0.65485,0 0.92274,-0.0516 0.59532,-0.11466 z m -0.81133,-3.97559 c 0.0773,-0.66699 0.29295,-0.82511 1.70646,-1.25102 0.0194,-0.006 0.11814,-0.39758 0.21946,-0.87052 0.16279,-0.75987 0.11829,-0.85989 -0.3826,-0.85989 -0.39332,0 -0.54281,0.14172 -0.48838,0.46302 0.0431,0.25466 -0.0387,0.4975 -0.1818,0.53964 -0.40571,0.11946 -0.48203,-1.04774 -0.085,-1.29942 0.54299,-0.34418 1.54517,-0.27396 1.6959,0.11884 0.0741,0.19318 0.0105,0.67824 -0.14149,1.0779 -0.23963,0.63027 -0.21474,0.715 0.18764,0.63877 0.29662,-0.0562 0.49216,-0.37512 0.54225,-0.88442 0.10787,-1.09667 -1.31198,-2.53383 -2.00619,-2.03065 -0.24937,0.18074 -0.84035,0.50642 -1.3133,0.72373 -0.54898,0.25224 -0.85989,0.58515 -0.85989,0.92072 0,0.61585 -0.089,0.63719 -0.81346,0.19489 -0.46093,-0.28142 -0.59845,-0.25416 -0.92245,0.18286 -0.58347,0.78701 -0.46439,0.91775 0.5518,0.60587 0.70911,-0.21763 1.01026,-0.20719 1.25678,0.0436 0.7573,0.77027 -2.29233,2.0336 -3.16358,1.31053 -0.303871,-0.25219 -0.375076,-0.69639 -0.285258,-1.7795 0.163188,-1.96779 0.838868,-2.53613 2.748318,-2.31171 1.01595,0.11941 1.43951,0.0628 1.67769,-0.22419 0.4619,-0.55655 0.10395,-0.93627 -0.8826,-0.93627 -0.47292,0 -1.08753,-0.16648 -1.36579,-0.36995 -0.46719,-0.34162 -0.4812,-0.48978 -0.18287,-1.93416 0.51019,-2.4701 0.41911,-3.83054 -0.3304,-4.93501 -0.72609,-1.06996 -0.53539,-1.29084 0.31742,-0.36765 0.85112,0.92136 1.15413,2.40779 0.81538,3.99984 -0.15893,0.74688 -0.30202,1.71516 -0.31799,2.15172 -0.0255,0.6971 0.0676,0.80259 0.76472,0.86631 1.72254,0.15744 2.04749,0.31682 1.92735,0.94529 -0.0998,0.52201 -0.0218,0.58302 0.62451,0.48818 1.00212,-0.14708 2.34293,1.16411 2.34293,2.29118 0,1.20239 -0.59333,1.66267 -2.51354,1.94988 -0.3146,0.0471 -0.56346,0.31945 -0.61372,0.67176 -0.12214,0.85611 -0.62814,0.73148 -0.52834,-0.13012 z m -2.29753,-1.01298 c 0.77467,-0.37958 0.61086,-0.38028 -0.59531,-0.003 -0.50111,0.15693 -0.59531,0.0883 -0.59531,-0.43399 0,-0.90217 0.72411,-1.79649 1.45459,-1.79649 0.34697,0 0.70932,-0.12698 0.80525,-0.28218 0.22231,-0.35971 0.14429,-0.42934 -0.72572,-0.64769 -1.04671,-0.26262 -2.06329,0.81968 -2.06329,2.19676 0,1.49864 0.29499,1.66438 1.71979,0.96624 z m -9.868578,-6.76517 c -0.750615,-0.37155 -1.108538,-0.70884 -1.052647,-0.99198 0.04658,-0.23596 -0.267526,-0.7525 -0.697997,-1.14787 -0.732399,-0.67268 -0.758852,-0.76339 -0.411758,-1.41194 0.790871,-1.47775 3.806978,-3.26915 5.548691,-3.29561 l 0.926041,-0.0141 -1.058333,-0.65185 c -0.582083,-0.35851 -1.389713,-0.65246 -1.794732,-0.6532 -0.736463,-0.001 -2.531581,0.81704 -4.026101,1.8355 -1.741062,1.18646 -1.948926,0.38604 -0.366581,-1.4116 1.512256,-1.71802 2.201395,-2.01276 4.706044,-2.01276 2.603828,0 4.68172,0.42223 5.345739,1.08625 0.513514,0.51351 0.741532,2.8825 0.277448,2.8825 -0.123095,0 -0.212392,-0.54008 -0.198438,-1.20017 0.01696,-0.80264 -0.106087,-1.28182 -0.371504,-1.44665 -1.302012,-0.80858 -6.60572,-1.08457 -7.90734,-0.41148 -0.682048,0.3527 -2.379287,2.26455 -2.010347,2.26455 0.08988,0 0.566817,-0.30769 1.059868,-0.68376 1.321112,-1.00766 3.149788,-1.49417 4.375579,-1.1641 1.321014,0.35571 4.691488,3.17078 3.796369,3.17078 -0.08619,0 -0.459434,-0.23812 -0.829432,-0.52917 -1.41532,-1.11329 -3.964657,-0.49452 -6.169536,1.49746 -1.196559,1.08102 -1.227947,1.1723 -0.548904,1.59637 0.40269,0.25148 0.717846,0.20058 1.653645,-0.26709 1.536655,-0.76794 5.290633,-0.83174 6.393651,-0.10866 0.393587,0.25802 0.7145,0.55567 0.713137,0.66146 -0.0059,0.45623 -3.993303,1.38333 -5.995728,1.39406 l -2.071587,0.0111 0.926042,0.50699 c 1.126865,0.61693 3.10443,0.6763 4.406434,0.13229 1.112687,-0.46491 1.149816,-0.47011 1.149816,-0.16102 0,0.41588 -2.086584,1.08707 -3.378793,1.08685 -0.743344,-1.2e-4 -1.713169,-0.22877 -2.388746,-0.56317 z m 4.836189,-1.92194 c 1.464768,-0.56097 1.539696,-0.62868 1.009582,-0.91239 -0.838452,-0.44873 -1.321253,-0.37597 -1.477812,0.22271 -0.112586,0.43053 -0.360894,0.52917 -1.332135,0.52917 -1.369197,0 -2.093105,0.21428 -1.881359,0.55689 0.259355,0.41964 2.056056,0.22621 3.681724,-0.39638 z m -3.85374,-0.31431 c 0.06093,-0.0609 0.04194,-0.17963 -0.04221,-0.26378 -0.08415,-0.0841 -0.490945,0.0411 -0.903991,0.27832 l -0.750996,0.43131 0.793208,-0.16753 c 0.436263,-0.0921 0.84306,-0.21739 0.903994,-0.27832 z m 2.585053,-0.40261 c 0.73747,-0.28895 0.738944,-0.2941 0.149222,-0.52075 -0.896429,-0.34454 -1.746853,0.10171 -1.212379,0.63619 0.224287,0.22429 0.185259,0.22852 1.063157,-0.11544 z"
       id="path1300"
       sodipodi:nodetypes="csssssssssssssssssssssssssssssssssssscssssssscsscscssssssssssssssssssssssccssscssssscscsscssscssssscssscssscsssssssssscssssssssssssscsssssscsscssssssssssssscsssssssssssscsscsscssssssssssssscsssssssssssssssscsssssssssscssssssssssssssssssssssssssssssssssssssssssscsssssscssssssscsscscsssssscssssssssssssssssssssssssssscsssssssssssscscsssssssssssscsssssssssssssssssssscsssscsssscscsscccsscsscssssssscssssssscssssssssscsssssssssssscssssssssssssscssccssssssccsssssssssssscccsscsssscssssssssssssssssssssssssssssssssscssssssssscsssccscccccsssscccsscssccssssssssssssssssssscsssssssssssssssssssscssscsssscssssscssscsscscsscssscsssssssscssssssssssssssscsssccssscsccssssscscssssssssssssssssssscssssssssssssscsccssssss" />
  </g>
</svg>
