<?xml version="1.0" encoding="UTF-8" standalone="no"?>
<!-- Created with Inkscape (http://www.inkscape.org/) -->

<svg
   width="210mm"
   height="297mm"
   viewBox="0 0 210 297"
   version="1.1"
   id="svg9234"
   inkscape:version="1.1.2 (08b2f3d93c, 2022-04-05)"
   sodipodi:docname="earth.svg"
   xmlns:inkscape="http://www.inkscape.org/namespaces/inkscape"
   xmlns:sodipodi="http://sodipodi.sourceforge.net/DTD/sodipodi-0.dtd"
   xmlns="http://www.w3.org/2000/svg"
   xmlns:svg="http://www.w3.org/2000/svg">
  <sodipodi:namedview
     id="namedview9236"
     pagecolor="#ffffff"
     bordercolor="#666666"
     borderopacity="1.0"
     inkscape:pageshadow="2"
     inkscape:pageopacity="0.0"
     inkscape:pagecheckerboard="0"
     inkscape:document-units="mm"
     showgrid="false"
     inkscape:zoom="0.90583672"
     inkscape:cx="554.73574"
     inkscape:cy="565.77525"
     inkscape:window-width="1920"
     inkscape:window-height="1027"
     inkscape:window-x="0"
     inkscape:window-y="27"
     inkscape:window-maximized="1"
     inkscape:current-layer="layer1" />
  <defs
     id="defs9231" />
  <g
     inkscape:label="Layer 1"
     inkscape:groupmode="layer"
     id="layer1">
    <path
       style="fill:#000000;stroke-width:0.242674"
       d="m 100.19593,209.8641 c -4.633268,-0.40163 -16.949171,-2.33758 -20.081237,-3.1566 -0.942877,-0.24656 -1.230639,-0.8905 -0.606684,-1.35762 0.389777,-0.2918 3.323625,-1.41204 4.989269,-1.90507 0.75288,-0.22285 1.692012,-0.74594 2.25921,-1.25837 l 0.970716,-0.87699 1.084043,0.52667 c 0.596222,0.28967 1.326825,0.52427 1.623563,0.52134 0.855017,-0.008 2.457622,-0.83597 3.576392,-1.8467 l 1.02898,-0.92963 -0.15042,-1.77943 c -0.18972,-2.24437 0.16647,-3.06846 1.48445,-3.43448 0.5003,-0.13894 1.16056,-0.25323 1.46724,-0.25398 0.30668,-7.2e-4 0.81062,-0.27436 1.11986,-0.60803 0.65708,-0.709 0.92182,-0.74333 1.716618,-0.22255 1.44725,0.94827 2.56697,-0.80258 2.62352,-4.10228 0.0187,-1.09158 -0.059,-2.55273 -0.1728,-3.24701 l -0.2068,-1.26232 2.83651,-2.92612 c 1.56009,-1.60937 3.00548,-3.3305 3.21199,-3.82475 0.36953,-0.88442 0.36497,-0.90699 -0.2884,-1.42798 -0.36513,-0.29114 -1.44102,-0.75542 -2.39088,-1.03174 -3.0146,-0.87697 -8.940728,-2.00082 -10.840738,-2.05588 -1.47643,-0.0428 -1.96724,-0.15831 -2.52013,-0.59322 -1.067255,-0.8395 -3.032467,-0.74893 -5.139002,0.23683 -2.106744,0.98587 -3.812795,1.09364 -3.932734,0.24843 -0.07241,-0.51027 -0.164348,-0.54062 -1.215195,-0.40122 -0.939991,0.12469 -1.211099,0.0688 -1.565562,-0.32291 -0.5887,-0.6505 -0.370223,-1.04642 1.302744,-2.36077 1.563276,-1.22818 2.276001,-2.29836 2.035444,-3.0563 -0.41172,-1.29721 -2.86637,-2.73463 -5.361882,-3.13987 -4.794948,-0.77864 -4.404865,-0.61612 -6.401535,-2.66704 -1.046272,-1.0747 -2.354515,-2.14029 -3.077195,-2.50643 -1.559175,-0.78996 -2.070508,-1.44937 -1.759075,-2.2685 0.124009,-0.32617 0.225473,-0.68346 0.225473,-0.79397 0,-0.11052 -0.955527,-0.18992 -2.123394,-0.17646 -3.495001,0.0403 -5.871467,-0.9559 -6.626007,-2.77752 -0.279517,-0.67481 -0.341073,-0.71278 -0.499767,-0.30826 -0.09954,0.25374 -0.188664,0.92546 -0.198044,1.49271 -0.01143,0.6908 -0.177324,1.19163 -0.502404,1.51671 -0.649235,0.64924 -0.877586,0.61579 -1.749626,-0.25625 -0.734061,-0.73406 -0.739904,-0.76025 -0.575221,-2.57759 l 0.166375,-1.83599 -0.680149,0.16729 c -1.001887,0.24642 -1.766945,0.80992 -2.220092,1.63518 -1.380628,2.51437 -2.394727,2.48351 -4.049741,-0.12324 -0.239269,-0.37687 -1.068744,-1.11556 -1.843276,-1.64153 -1.974467,-1.34084 -2.571325,-2.45565 -2.873165,-5.3665 -0.304053,-2.9322 -0.524531,-3.50155 -1.516785,-3.91683 -0.437863,-0.18326 -0.83103,-0.30473 -0.873709,-0.26992 -0.04268,0.0348 0.154699,0.51862 0.438617,1.07515 0.283919,0.55653 0.849489,2.28706 1.256821,3.84563 0.989686,3.78681 1.380784,4.50503 2.861879,5.25555 1.255166,0.63604 2.103239,1.66324 3.253189,3.94032 0.889547,1.76144 0.827061,2.73962 -0.327526,5.12716 -1.477603,3.05549 -1.800449,4.38717 -1.490373,6.1475 0.412031,2.33913 2.702282,6.97348 4.793623,9.69995 1.789128,2.33248 4.499086,4.61473 7.831302,6.59532 2.87309,1.70769 3.318078,2.07339 5.485718,4.50827 2.898158,3.25545 3.317202,3.83841 6.93059,9.64169 1.590172,2.55389 3.32927,5.22643 3.864664,5.93897 1.03872,1.38241 1.205811,2.01686 0.593086,2.25198 -0.40697,0.15617 -6.316547,-2.78997 -11.189978,-5.57862 -13.34468,-7.63601 -21.520874,-15.45484 -28.192553,-26.96031 -1.903597,-3.28279 -5.38094,-10.61296 -7.072726,-14.90915 -3.476494,-8.82836 -5.4243,-15.42212 -6.203321,-20.99963 -0.540855,-3.87232 -0.365032,-12.3229 0.35763,-17.18875 1.710147,-11.51482 3.764253,-18.05589 8.877206,-28.268417 7.439789,-14.86014 14.770241,-22.45175 31.521441,-32.64444 2.994386,-1.82201 3.14165,-1.88295 3.46966,-1.43583 0.308399,0.42039 0.274866,0.52113 -0.336368,1.01051 -0.624542,0.50005 -0.533702,0.48712 1.134257,-0.16135 0.997242,-0.38772 1.85719,-0.85073 1.910996,-1.02893 0.653199,-2.16331 8.296057,-5.30692 17.267097,-7.10219 6.200363,-1.24081 8.737013,-1.45012 17.715171,-1.46181 7.0284,-0.009 8.80071,0.0606 11.04165,0.4347 10.40176,1.73629 23.28898,6.87122 33.0036,13.15035 4.31434,2.78861 10.1381,7.70483 14.60764,12.33128 4.16333,4.30949 9.70581,11.85654 9.49724,12.93213 -0.13532,0.69785 -0.60533,0.63604 -1.36787,-0.17988 l -0.72858,-0.77957 0.27234,1.0203 c 0.32946,1.23434 0.067,1.78413 -0.95144,1.99284 -0.61386,0.12581 -0.64422,0.16891 -0.24161,0.34304 0.26826,0.11602 0.76922,0.0826 1.20014,-0.08 0.91113,-0.34391 1.64974,0.0615 2.3862,1.3097 0.6391,1.08318 0.75474,1.0569 0.28599,-0.065 -0.34905,-0.83538 -0.34426,-0.91867 0.0702,-1.22173 0.60762,-0.4443 0.66446,-0.35083 2.88606,4.74547 6.56003,15.048567 7.8787,20.234017 7.87746,30.976667 -7.2e-4,5.73165 -0.2539,9.7401 -0.99694,15.78015 -0.53892,4.38082 -0.87309,5.31634 -1.56537,4.38241 -0.19205,-0.25908 -0.34918,-0.61811 -0.34918,-0.79784 0,-0.17972 -0.38696,-1.32874 -0.85991,-2.55337 -1.26657,-3.27955 -1.40061,-4.07657 -0.98314,-5.84569 0.19404,-0.82226 0.42281,-2.20484 0.50838,-3.0724 0.0856,-0.86756 0.43304,-2.76415 0.77215,-4.21464 l 0.61656,-2.63726 -0.53378,-3.91493 c -0.64019,-4.69526 -1.20662,-8.18807 -1.37101,-8.45405 -0.066,-0.10688 -0.33187,-0.081 -0.59071,0.0575 -0.50752,0.27162 -1.44132,-0.0588 -1.44132,-0.50995 0,-0.13328 -0.38447,-0.46917 -0.85438,-0.74642 -0.53836,-0.31764 -1.2037,-1.10003 -1.79876,-2.11521 -1.14649,-1.95591 -1.69139,-2.48127 -4.54017,-4.37727 -2.59972,-1.73025 -4.56276,-3.7647 -4.98167,-5.16291 -0.2594,-0.8658 -0.23786,-1.09412 0.17623,-1.867477 0.65481,-1.22295 1.31947,-1.25497 2.72949,-0.1315 2.05775,1.639577 2.99303,2.630917 3.59832,3.814007 0.51276,1.00224 4.69315,5.98302 5.19041,6.18419 0.30362,0.12283 0.48053,-1.38651 0.48053,-4.09969 0,-3.11189 -0.34501,-4.20904 -1.57459,-5.00725 -1.05587,-0.685427 -1.37484,-1.314507 -2.15305,-4.246207 -0.64504,-2.43001 -1.37166,-4.1305 -1.91105,-4.47235 -0.16874,-0.10695 -0.83162,-0.21499 -1.47305,-0.2401 -1.51719,-0.0594 -2.35252,-0.60196 -2.35252,-1.52803 0,-0.75298 0.54025,-1.46778 1.10936,-1.46778 0.4906,0 0.42702,-0.72322 -0.13867,-1.57738 -0.63158,-0.95365 -0.63158,-1.82725 0,-1.99241 0.26694,-0.0698 0.48535,-0.17909 0.48535,-0.24285 0,-0.29915 -3.09503,-4.34798 -5.15503,-6.74366 -4.36213,-5.07295 -12.02758,-11.65922 -17.77762,-15.27481 -6.76198,-4.25189 -18.35266,-9.19116 -25.87837,-11.02786 -5.72658,-1.39761 -7.82748,-1.60573 -16.10416,-1.59536 -8.077298,0.0101 -11.356928,0.28416 -17.293349,1.445 -3.273256,0.64006 -8.641035,2.05558 -8.464481,2.23214 0.171784,0.17178 4.746042,-0.39241 6.214169,-0.76647 2.644729,-0.67383 7.701303,-1.55429 10.443403,-1.81841 1.53491,-0.14785 3.703598,-0.43775 4.819318,-0.64423 3.01905,-0.55873 3.91693,-0.16375 3.91693,1.72311 v 1.05386 l 4.18612,-0.12361 4.18612,-0.12362 1.2984,0.9938 c 1.44338,1.10477 2.34431,1.25272 3.83517,0.6298 1.27238,-0.53163 2.03564,-0.45109 3.29524,0.34772 1.34831,0.85508 1.76348,1.51592 1.76348,2.80704 0,0.91106 0.0671,1.00288 1.09203,1.49457 1.47437,0.7073 1.90787,1.23935 3.40558,4.17985 0.98101,1.92604 1.22544,2.61212 1.0375,2.91208 -0.63347,1.01107 -3.26384,0.2802 -4.54668,-1.26333 l -0.84246,-1.01366 h -2.49972 c -2.99382,0 -3.98663,0.33087 -4.47096,1.49005 -0.18379,0.43987 -0.33416,1.0817 -0.33416,1.42629 0,0.69812 0.62626,2.05847 0.94766,2.05847 0.11395,0 0.64379,0.42371 1.17743,0.94159 0.78679,0.76355 1.11988,1.3945 1.76155,3.33676 0.94791,2.86923 1.53703,4.11117 2.37363,5.00391 0.86351,0.92145 1.3588,0.83814 2.16405,-0.36401 1.36235,-2.03383 2.98133,-1.19242 2.98133,1.54944 0,1.66649 0.28847,1.80921 1.4889,0.73663 1.26303,-1.12852 0.92523,-1.76997 -2.42603,-4.60667 -0.875,-0.74065 -1.31059,-1.32206 -1.49019,-1.98905 -0.14092,-0.52333 -0.56066,-1.19109 -0.9438,-1.50151 -0.37951,-0.30746 -0.88084,-0.85933 -1.11409,-1.22637 -0.39468,-0.62109 -0.39652,-0.70941 -0.0266,-1.27404 0.68588,-1.04679 1.67569,-0.76991 3.59135,1.00459 1.53321,1.42024 2.09263,1.39698 3.73386,-0.15523 1.43732,-1.35936 2.03211,-1.48603 2.90042,-0.61772 0.80523,0.80523 0.75051,1.35714 -0.2537,2.55911 -1.06884,1.27932 -1.0931,2.11059 -0.12153,4.16433 0.40031,0.84617 0.72792,1.93162 0.72802,2.41211 2.1e-4,0.97325 -0.83355,2.2939 -2.21027,3.50097 -0.46074,0.40397 -1.07741,1.12234 -1.37039,1.59638 -0.51978,0.84103 -1.40623,1.43058 -2.15101,1.43058 -0.30088,0 -0.27861,0.11645 0.11894,0.62184 0.68208,0.86713 1.07827,2.19461 0.88655,2.97048 -0.0889,0.35996 -0.45423,0.96915 -0.81176,1.35375 -0.46315,0.49824 -0.55815,0.73237 -0.33041,0.81435 0.1758,0.0633 0.61261,0.3699 0.97069,0.68138 0.92461,0.80427 0.51595,1.36497 -1.25408,1.72064 -0.75422,0.15155 -1.67154,0.47916 -2.03848,0.72801 l -0.66717,0.45248 2.00771,0.0706 2.00771,0.0706 0.75278,1.02146 c 1.19379,1.61988 1.70819,2.9328 1.43282,3.65707 -0.31321,0.823797 -0.94495,1.200687 -3.53161,2.106927 -3.61665,1.26708 -4.39951,2.21637 -3.30627,4.00913 0.55526,0.91055 2.53965,2.21631 4.0665,2.67582 1.77013,0.53273 2.6865,0.16258 4.94913,-1.99912 1.1654,-1.11342 2.15706,-2.31719 2.53702,-3.07967 0.59508,-1.19417 0.61639,-1.37543 0.46312,-3.939157 -0.18951,-3.16988 0.0405,-4.11446 1.26337,-5.18816 1.11296,-0.97718 1.97767,-0.95496 3.7016,0.0952 0.75421,0.45942 1.8081,0.90252 2.34198,0.98468 1.7798,0.27388 2.02082,0.36016 2.77205,0.99227 0.85802,0.72198 0.9863,0.41497 0.40646,-0.97278 -0.32141,-0.76925 -0.45919,-0.84177 -2.48741,-1.30927 -3.54411,-0.8169 -4.45254,-1.36461 -4.45254,-2.68454 0,-1.28009 0.53356,-1.42237 2.63135,-0.70168 1.02196,0.35109 2.36992,0.70617 2.99547,0.78906 1.17612,0.15585 2.33742,0.81525 3.88362,2.20519 1.37186,1.2332 2.33124,1.66087 3.02089,1.34664 0.80671,-0.36756 0.71859,-0.7601 -0.41765,-1.86029 -1.20196,-1.16384 -1.75479,-2.15734 -1.55345,-2.79172 0.23005,-0.72482 0.8546,-0.94219 1.80548,-0.6284 0.85819,0.28321 1.68229,1.23317 3.00955,3.46922 l 0.6935,1.16835 0.44214,-0.86181 c 0.30626,-0.59697 0.76433,-0.99873 1.49056,-1.30735 0.57663,-0.24505 1.39251,-0.83076 1.81306,-1.30158 0.73146,-0.81889 0.78963,-0.83967 1.34031,-0.47885 0.74468,0.48793 3.11253,4.75808 3.11253,5.61309 0,0.71344 -1.12493,2.8717 -1.96901,3.77773 -0.63547,0.682087 -1.48959,1.044407 -3.73382,1.583907 -2.28131,0.54842 -2.7438,0.93605 -2.91889,2.44646 -0.078,0.67312 -0.33278,1.4083 -0.57216,1.65119 -0.54034,0.54826 -3.62656,1.11963 -6.10947,1.13109 -2.16686,0.01 -2.80067,-0.39462 -3.04879,-1.94627 -0.0851,-0.53246 -0.23066,-1.01499 -0.32338,-1.07229 -0.25331,-0.15656 -4.40657,1.93479 -5.13035,2.58335 -0.34679,0.31075 -1.14742,1.18782 -1.77916,1.94904 -1.46096,1.76036 -4.01591,3.85465 -5.77081,4.73032 -1.69379,0.84518 -2.96413,2.33635 -2.74613,3.22351 0.0827,0.33646 0.21273,1.43855 0.289,2.44909 0.16608,2.20042 -0.17385,3.05309 -1.55082,3.88992 -1.16807,0.70989 -1.18956,0.74596 -1.37282,2.30525 -0.0845,0.71901 -0.43726,2.15432 -0.78391,3.18958 -0.74364,2.22089 -1.03623,5.90684 -0.59735,7.52518 0.23026,0.84907 0.43808,1.09819 1.17186,1.40479 1.50567,0.62911 1.65673,1.35596 0.54497,2.62219 -0.40041,0.45604 -0.72802,0.94214 -0.72802,1.08023 0,0.13809 -0.30026,0.46979 -0.66725,0.73713 -0.64124,0.46711 -0.654,0.51757 -0.32722,1.29427 0.33345,0.79256 0.40399,1.5522 0.23164,2.49481 -0.0753,0.41185 0.19673,0.53998 2.09754,0.98798 2.51412,0.59256 3.15175,0.88645 3.554,1.63805 0.15897,0.29704 0.79998,0.99946 1.42447,1.56093 0.69661,0.6263 1.29989,1.45146 1.56094,2.135 l 0.42549,1.11414 1.04371,-0.15651 c 1.40381,-0.21052 1.93478,-9.7e-4 2.52307,0.99621 0.81705,1.3848 1.40392,1.4981 3.20592,0.61896 1.17069,-0.57114 1.87463,-0.75307 2.91379,-0.75307 1.28074,0 1.41247,-0.0554 2.01802,-0.84936 0.70366,-0.92255 1.1246,-1.05073 1.59383,-0.48535 0.49007,0.5905 0.64279,0.43985 1.05946,-1.04516 0.35391,-1.26134 0.5972,-1.59228 2.31922,-3.15475 2.30622,-2.09254 2.79447,-2.18879 3.93071,-0.7749 0.83061,1.0336 1.41154,1.20995 1.92957,0.58577 0.21009,-0.25315 0.54389,-0.34004 0.97501,-0.25382 0.50101,0.1002 0.68331,0.025 0.77328,-0.31903 0.0647,-0.24757 0.32187,-0.55726 0.5714,-0.6882 0.76006,-0.39882 1.52821,0.0887 2.07013,1.31374 0.42195,0.9539 0.48637,1.509 0.41249,3.55466 -0.0802,2.21994 -0.0467,2.44704 0.39677,2.69499 2.09715,1.17247 2.81269,2.38299 2.82415,4.77775 l 0.007,1.46762 1.19368,0.85757 c 1.73084,1.24349 1.5804,2.01517 -0.48326,2.47884 -1.2891,0.28965 -1.34011,0.34494 -1.70822,1.85197 -0.66667,2.72928 -0.72384,3.71689 -0.34075,5.88649 0.43044,2.43777 0.31026,4.42677 -0.39056,6.46373 -0.58626,1.704 -0.34858,1.75017 1.60524,0.31185 1.70875,-1.25791 2.4472,-2.10482 3.70435,-4.24844 0.52215,-0.89033 1.56885,-2.32859 2.326,-3.19615 1.57378,-1.80325 1.92337,-2.40472 2.59544,-4.46547 0.26547,-0.81402 0.63218,-1.64783 0.81489,-1.85291 0.54031,-0.60645 1.25461,-2.43442 1.56118,-3.99525 0.15729,-0.80082 0.60451,-2.39723 0.99382,-3.54757 0.44375,-1.31119 0.70784,-2.59106 0.70784,-3.43044 0,-1.15413 0.1314,-1.53532 0.9521,-2.76194 1.70046,-2.54154 2.91034,-3.30433 3.24023,-2.04286 0.49702,1.90064 -2.97982,13.41263 -5.64609,18.69449 -2.65052,5.25065 -7.21104,11.03059 -14.46148,18.32826 -13.8046,13.89455 -25.05165,20.17595 -41.89091,23.39578 -6.38844,1.22153 -15.79851,1.74208 -21.91212,1.21213 z m 15.89512,-1.57211 c 15.98706,-1.86007 28.6515,-7.41914 40.52649,-17.78913 3.75111,-3.27571 13.15957,-12.80184 11.891,-12.03972 -0.20021,0.12027 -0.80496,0.51566 -1.34391,0.87864 -1.23337,0.83067 -2.10884,1.05506 -2.75894,0.70714 -0.63994,-0.34249 -0.65682,-1.20076 -0.058,-2.94686 0.72561,-2.11564 0.80725,-3.30884 0.38864,-5.68015 -0.41143,-2.33069 -0.34352,-3.75721 0.3036,-6.3772 0.44916,-1.81855 1.02777,-2.62811 2.03676,-2.84972 l 0.74633,-0.16392 -0.87063,-0.79746 c -0.81659,-0.74798 -0.87062,-0.88926 -0.87062,-2.27654 0,-2.17613 -0.54811,-3.34322 -1.8596,-3.95969 -1.467,-0.68958 -1.61641,-1.07027 -1.41562,-3.60711 0.11296,-1.42722 0.0742,-2.42735 -0.11661,-3.00538 -0.2869,-0.86931 -0.73363,-1.17859 -0.73363,-0.50791 0,0.58017 -1.18143,1.23432 -1.67385,0.9268 -0.3036,-0.18961 -0.53436,-0.16901 -0.87193,0.0778 -0.75899,0.55498 -1.29888,0.39077 -2.5438,-0.7737 l -1.18601,-1.10938 -0.41788,0.63776 c -0.22983,0.35078 -0.88925,0.96208 -1.46537,1.35846 -0.80223,0.55195 -1.11206,0.96068 -1.32323,1.74565 -0.58759,2.18413 -1.45356,3.11363 -2.41929,2.59678 -0.40928,-0.21903 -0.57317,-0.16964 -0.93993,0.28328 -0.36557,0.45146 -0.7826,0.57834 -2.3557,0.71668 -1.39531,0.12271 -2.20638,0.33801 -3.00352,0.79729 -1.8023,1.03842 -3.34906,0.70654 -4.36449,-0.93646 -0.58955,-0.95391 -0.55663,-0.94115 -1.63275,-0.63253 -1.24321,0.35655 -1.70009,0.09 -2.40412,-1.40245 -0.38868,-0.82397 -1.26286,-1.98089 -2.19738,-2.90808 -1.50966,-1.49783 -1.61532,-1.55545 -3.88079,-2.11642 -3.37406,-0.83549 -4.26893,-1.55346 -3.26634,-2.62066 0.61301,-0.65253 0.63022,-0.85031 0.15353,-1.76433 -0.53004,-1.01631 -0.45576,-1.4321 0.42318,-2.36866 0.43378,-0.46221 1.08011,-1.15968 1.43629,-1.54994 l 0.64759,-0.70956 -0.81772,-0.38994 c -1.48718,-0.70919 -1.69084,-1.31252 -1.69084,-5.00925 0,-2.90676 0.0744,-3.51122 0.6438,-5.22815 0.35408,-1.06777 0.71689,-2.48741 0.80625,-3.15476 0.24381,-1.82096 0.55553,-2.43093 1.46365,-2.86398 0.45319,-0.21611 1.00655,-0.67156 1.22969,-1.01211 0.41198,-0.62877 0.40998,-0.87512 -0.0356,-4.38122 -0.14787,-1.16356 -0.10852,-1.2786 0.85374,-2.49595 0.70695,-0.89436 1.3879,-1.44385 2.27607,-1.83664 1.61127,-0.71258 4.22888,-2.91016 6.24939,-5.24661 1.4328,-1.65683 1.82354,-1.94395 4.3571,-3.20167 1.53073,-0.7599 2.85295,-1.38781 2.93827,-1.39537 0.47725,-0.0423 1.23125,0.99322 1.49192,2.04897 l 0.29958,1.21337 2.07795,-0.0346 c 1.14287,-0.019 2.68419,-0.16042 3.42515,-0.31425 l 1.3472,-0.27967 0.12146,-1.07762 c 0.2287,-2.02898 0.97693,-2.65307 4.21685,-3.517227 2.43558,-0.64962 2.78509,-0.88966 3.74936,-2.57503 l 0.79354,-1.38697 -1.04014,-2.03131 c -0.57207,-1.11721 -1.10976,-1.99375 -1.19485,-1.94787 -0.0851,0.0459 -0.79717,0.39317 -1.5824,0.77174 -1.17546,0.56669 -1.49281,0.85404 -1.7962,1.6264 -0.32063,0.81625 -0.46916,0.93811 -1.14343,0.93811 -0.46674,0 -0.94962,-0.19302 -1.21417,-0.48535 -0.51444,-0.56845 -0.84936,-0.6248 -0.84936,-0.14291 0,0.59418 -1.43054,1.59895 -2.2765,1.59895 -0.74421,0 -2.80741,-1.08994 -3.16818,-1.67368 -0.0901,-0.1458 -0.37106,-0.37599 -0.62432,-0.51154 -0.44343,-0.23731 -0.44646,-0.21289 -0.0819,0.65955 0.2082,0.49829 0.4363,1.95407 0.50688,3.23507 0.12789,2.320827 0.12596,2.330957 -0.54396,2.857907 -0.73271,0.57636 -2.03699,0.70035 -2.4997,0.23763 -0.41861,-0.41861 -0.36048,-1.04838 0.19778,-2.142657 0.61158,-1.1988 0.30938,-1.83656 -1.03501,-2.18425 -0.50051,-0.12944 -1.37413,-0.35432 -1.94138,-0.49972 -0.56725,-0.1454 -1.54603,-0.591 -2.17507,-0.99022 -0.62904,-0.39922 -1.33502,-0.68901 -1.56885,-0.64398 -0.23382,0.045 -0.68459,0.46333 -1.0017,0.92955 -0.55592,0.81732 -0.57059,0.95368 -0.40953,3.80754 0.15877,2.813087 0.13749,3.024417 -0.42907,4.261957 -0.7191,1.57073 -3.12873,4.20978 -4.85561,5.31792 -1.07463,0.68959 -1.4712,0.80631 -2.71967,0.80047 -1.76122,-0.008 -3.6879,-0.81921 -5.20719,-2.19179 -1.24017,-1.12041 -1.71455,-1.98925 -1.71455,-3.14019 0,-1.90993 1.09225,-2.81436 4.97481,-4.11937 2.59516,-0.872277 2.7432,-1.163737 1.5311,-3.014477 l -0.80308,-1.22621 -1.84427,0.0539 c -2.0803,0.0608 -2.64519,-0.21173 -2.64519,-1.27605 0,-0.85679 1.00091,-1.86163 2.2174,-2.2261 1.02313,-0.30653 1.12584,-0.4735 0.57334,-0.93203 -0.53973,-0.44794 -0.44936,-0.8566 0.40446,-1.82904 0.89291,-1.01698 0.98747,-1.93491 0.30334,-2.94463 l -0.46512,-0.68649 -0.12134,1.5082 c -0.0714,0.8871 -0.27124,1.64956 -0.48535,1.85145 -0.41068,0.38727 -3.36093,1.37249 -4.10993,1.37249 -0.62495,0 -1.0991,-0.73406 -1.9535,-3.0243 -0.37652,-1.00925 -1.03388,-2.37935 -1.46082,-3.04468 -1.37848,-2.14817 -0.92224,-3.76039 0.80145,-2.83212 0.97211,0.52352 2.4171,1.84521 3.5957,3.28888 l 0.86644,1.06131 0.51535,-0.83386 c 0.6314,-1.02161 1.26309,-1.36154 2.83734,-1.52684 0.85705,-0.09 1.32027,-0.27686 1.57738,-0.63638 0.20021,-0.27994 1.04136,-1.19554 1.86924,-2.03465 1.99142,-2.01847 2.05484,-2.35166 0.91142,-4.78825 -0.88517,-1.88628 -0.909,-2.00403 -0.62278,-3.07748 0.16368,-0.61389 0.56414,-1.39514 0.88991,-1.73612 0.32577,-0.34098 0.59231,-0.75049 0.59231,-0.91003 0,-0.58723 -0.66612,-0.26171 -1.60692,0.78527 -1.27268,1.41633 -1.95416,1.57243 -3.50788,0.8035 l -1.21969,-0.60361 0.15765,0.75776 c 0.24246,1.16543 0.71274,1.74663 2.26774,2.80261 1.55381,1.05517 2.45306,2.46574 2.45306,3.84785 0,1.54419 -2.8087,3.42692 -4.08966,2.74137 -0.46161,-0.24705 -0.52113,-0.4858 -0.52113,-2.09042 0,-0.99633 -0.0714,-1.81151 -0.15873,-1.81151 -0.0873,0 -0.53262,0.43681 -0.98961,0.97069 -0.69147,0.80783 -0.9815,0.9707 -1.72866,0.9707 -0.49378,0 -1.12703,-0.16057 -1.40722,-0.35682 -0.90208,-0.63184 -2.05401,-2.7325 -3.03231,-5.52973 -0.89204,-2.55059 -1.0471,-2.81533 -2.37971,-4.06307 -1.58593,-1.48492 -1.89147,-2.30827 -1.59362,-4.29445 0.34287,-2.28642 2.14302,-3.22843 6.16944,-3.22843 2.33005,0 3.32581,0.32401 3.79719,1.23557 0.33598,0.64971 1.45249,1.43384 2.04163,1.43384 0.14144,0 -0.23558,-0.9811 -0.83782,-2.18023 -1.00354,-1.99818 -1.19699,-2.23193 -2.31658,-2.79927 -1.41471,-0.71689 -2.25292,-1.86151 -2.07232,-2.82987 0.0969,-0.51954 -0.0495,-0.80046 -0.72705,-1.39537 -1.00731,-0.88444 -0.99403,-0.88334 -2.89922,-0.2398 -1.84344,0.62269 -3.06568,0.38381 -4.45406,-0.87051 l -0.91282,-0.82468 -4.32635,0.14867 c -4.93478,0.16956 -4.9835,0.15201 -4.9835,-1.79568 v -1.04565 l -1.03136,0.0106 c -0.56725,0.006 -1.52278,0.11074 -2.1234,0.23318 -0.60061,0.12244 -2.347868,0.34146 -3.882778,0.48671 -1.53491,0.14525 -5.19321,0.74204 -8.129562,1.3262 -2.93635,0.58416 -6.594654,1.18513 -8.129564,1.33548 -3.961187,0.388 -5.625064,0.81141 -6.123792,1.55833 -0.600964,0.90003 0.369417,4.12098 1.537696,5.10403 0.398963,0.3357 1.151743,0.72518 1.672843,0.86549 1.293336,0.34826 1.955784,1.33731 2.121773,3.16787 l 0.131296,1.44796 0.754771,-0.47629 c 0.415124,-0.26195 1.197582,-1.05443 1.738792,-1.76105 1.816926,-2.37224 3.137913,-2.78852 6.737312,-2.12313 1.100071,0.20335 1.790951,0.17334 3.409575,-0.14811 1.90977,-0.37928 2.08228,-0.37832 2.91366,0.0162 0.79361,0.37659 1.08,0.38747 2.80905,0.10667 1.573468,-0.25552 1.994458,-0.25531 2.303478,0.001 0.40614,0.33707 0.46588,1.52676 0.1712,3.40915 -0.12972,0.82865 -0.0418,1.47248 0.36443,2.66941 0.54989,1.62011 0.53035,2.84961 -0.0488,3.07186 -0.50667,0.19442 -0.15895,2.74885 0.46863,3.44271 0.84196,0.93088 1.78178,1.30507 2.83211,1.12762 1.10049,-0.18593 2.21983,0.3519 2.63674,1.26692 0.38776,0.85105 0.33055,1.16608 -0.36105,1.988 -1.50085,1.78366 -4.65231,1.38109 -5.09522,-0.65087 -0.3826,-1.75538 -1.04521,-2.48076 -2.26601,-2.48076 -0.24411,0 -1.322678,0.96586 -2.423198,2.16998 -1.21846,1.33316 -2.35457,2.33379 -2.94609,2.59478 -0.69128,0.30499 -0.96282,0.57179 -0.96282,0.94601 0,0.85368 -1.41556,3.425 -2.325213,4.22369 -1.649852,1.44859 -2.813407,0.76999 -4.948706,-2.88615 -2.157149,-3.69355 -2.307981,-4.64931 -1.027434,-6.51049 0.842624,-1.22469 1.436329,-5.56713 0.902334,-6.59977 -0.648601,-1.25425 -1.317878,-1.4767 -4.74819,-1.57817 -3.289042,-0.0973 -5.498076,-0.54844 -6.07213,-1.24014 -0.490884,-0.59148 -0.321557,-2.19471 0.353452,-3.34652 l 0.601542,-1.02639 -0.846394,-0.67536 c -0.465519,-0.37144 -1.016531,-1.03213 -1.224475,-1.4682 l -0.378081,-0.79284 -1.007857,0.99661 c -0.55432,0.54813 -1.694422,1.37881 -2.533561,1.84596 -3.401244,1.89346 -3.664208,2.28147 -2.818015,4.15799 0.730792,1.62061 1.23299,1.79787 4.857728,1.71463 2.778678,-0.0638 3.349739,-0.007 4.588192,0.45636 2.187841,0.81857 3.32235,2.10544 3.969019,4.50203 0.288264,1.06832 0.524116,2.56116 0.524116,3.31742 0,1.17416 -0.102718,1.48998 -0.703185,2.16202 -0.581446,0.65075 -0.879447,0.787 -1.721276,0.787 -0.874948,0 -1.145293,-0.13637 -1.922846,-0.96994 -0.837006,-0.89732 -1.281132,-1.85083 -2.574128,-5.5265 -0.290034,-0.82449 -0.593653,-1.23806 -1.030997,-1.40433 -0.703979,-0.26766 -2.458103,-0.0619 -3.623405,0.42497 -0.431709,0.18038 -1.225246,0.32796 -1.763414,0.32796 -1.009803,0 -1.129194,0.11406 -0.748803,0.71532 0.190127,0.30053 0.488647,0.26776 2.065205,-0.22667 2.151093,-0.67462 3.010417,-0.53171 3.396032,0.56478 0.189031,0.53751 0.138875,0.86834 -0.238351,1.57212 -0.649147,1.21108 -2.289703,2.05167 -5.573909,2.85596 -8.257057,2.02214 -9.326452,3.51079 -7.120865,9.91257 0.554786,1.61028 1.128103,3.46229 1.274037,4.11559 l 0.265337,1.18781 1.456041,-1.56157 c 0.800823,-0.85886 1.77317,-2.15779 2.160773,-2.88652 0.3876,-0.72873 1.171067,-2.03478 1.741037,-2.90234 0.56997,-0.86756 1.162668,-2.05892 1.317108,-2.64747 0.521542,-1.98752 1.505035,-2.8114 3.161219,-2.6482 1.184363,0.11671 1.683213,0.95824 1.850728,3.12209 0.193702,2.50208 0.976513,3.06225 2.494461,1.78498 1.495374,-1.25827 2.213954,-0.003 1.615342,2.82088 -0.212815,1.00408 -0.386938,2.01696 -0.386938,2.25085 0,0.23389 0.643536,1.11701 1.43008,1.96249 1.980901,2.12931 2.785727,3.39629 2.607794,4.10524 -0.180529,0.71929 -0.847979,1.02236 -3.550474,1.61219 -2.182004,0.47623 -3.642157,1.0599 -3.642157,1.455907 0,0.11922 0.182547,0.53484 0.405658,0.92359 0.51839,0.90324 0.291235,1.51658 -0.56168,1.51658 h -0.656602 l 0.497324,0.54601 c 1.176039,1.29119 1.362352,2.62305 0.517229,3.69745 -1.157436,1.47145 -3.292486,1.70962 -6.274313,0.69993 -1.488564,-0.50404 -2.120743,-0.60265 -3.009348,-0.4694 -1.235384,0.18526 -1.688853,0.56569 -2.887823,2.42267 -1.050197,1.62657 -1.79609,2.11201 -3.731191,2.42838 l -1.650413,0.26982 -0.133146,2.0581 c -0.156769,2.42328 -0.720315,3.8324 -2.061854,5.15557 -0.509352,0.50238 -1.350442,1.04056 -1.869084,1.19595 -1.380482,0.4136 -1.638745,1.09466 -1.638745,4.32148 0,2.74645 -0.211973,3.58923 -1.181963,4.69932 -0.921573,1.05469 -2.374838,0.94128 -2.907072,-0.22684 -0.514417,-1.12902 -0.590481,-2.89852 -0.184616,-4.29465 0.49162,-1.69111 0.492134,-2.352 0.0024,-3.05123 -0.368439,-0.52602 -0.714947,-0.72133 -1.977568,-1.11466 -0.510496,-0.15903 -0.546016,-0.0991 -0.546016,0.92096 0,0.6683 -0.147759,1.23881 -0.381344,1.47239 -0.468586,0.46859 -0.453348,0.46865 -1.454081,-0.006 -0.645626,-0.30637 -0.924045,-0.67436 -1.3289,-1.75644 -0.281688,-0.75287 -0.626546,-1.5067 -0.766356,-1.67515 -1.016875,-1.22526 -3.131598,1.0717 -4.186422,4.54718 -0.544275,1.7933 -0.781108,6.41815 -0.38944,7.60492 0.344308,1.04326 1.364148,2.34469 1.837374,2.34469 0.185262,0 0.491656,-0.57253 0.711975,-1.3304 0.486958,-1.67507 1.1395,-2.3097 2.3749,-2.3097 1.232117,0 2.269445,0.55975 2.746323,1.48193 0.353776,0.68413 0.419963,0.7146 0.801679,0.36916 0.228836,-0.2071 0.827332,-0.54838 1.329994,-0.7584 1.537502,-0.64241 2.388629,-0.30815 4.713653,1.85116 1.462246,1.35803 2.33981,1.98216 3.056396,2.17371 1.375823,0.36779 1.611886,0.6171 1.611886,1.70239 0,0.80341 0.08614,0.95424 0.606684,1.06232 0.333676,0.0693 0.900498,0.18786 1.259604,0.26352 0.359106,0.0757 1.041626,0.44084 1.51671,0.8115 0.475084,0.37067 1.238909,0.80154 1.69739,0.9575 1.670223,0.56816 2.207912,1.69711 1.229855,2.58224 -0.766734,0.69389 -1.948856,0.53339 -2.70441,-0.36717 -0.639214,-0.76189 -0.643087,-0.76286 -1.424729,-0.35866 -1.09664,0.56709 -3.830767,0.54492 -5.029534,-0.0408 -1.514003,-0.73973 -1.27587,-1.88647 0.465715,-2.24266 0.903294,-0.18475 1.09612,-0.54739 0.570531,-1.07297 -0.300576,-0.30058 -0.724968,-0.34871 -2.076,-0.23544 -1.425459,0.1195 -1.775747,0.0722 -2.181096,-0.29466 -0.65901,-0.59639 -0.60599,-1.2416 0.160397,-1.95186 0.613358,-0.56844 0.623836,-0.6177 0.225128,-1.05827 -0.735174,-0.81236 -1.673011,-1.04017 -3.696983,-0.89803 -1.046972,0.0735 -2.154269,0.14835 -2.460662,0.16629 -0.41046,0.024 -0.594475,0.21959 -0.699169,0.74306 -0.07815,0.39075 -0.40078,0.91394 -0.716957,1.16264 -0.64393,0.50651 -0.696777,0.88983 -0.303611,2.2021 0.232733,0.77679 0.453811,0.98103 1.556663,1.43814 1.616987,0.6702 1.946909,1.31417 2.320852,4.53001 0.377469,3.24618 0.488211,3.43118 3.384595,5.65434 0.415994,0.3193 1.035136,1.00181 1.375874,1.51671 0.340738,0.51489 0.709612,0.93616 0.81972,0.93616 0.110108,0 0.485893,-0.48751 0.835079,-1.08334 0.781079,-1.33282 1.888658,-2.04584 3.468552,-2.23296 1.086809,-0.12872 1.24204,-0.0851 1.590466,0.44664 0.328131,0.5008 0.345817,0.81804 0.117765,2.1127 -0.174653,0.99153 -0.185578,1.60619 -0.03129,1.76047 0.154284,0.15428 0.283853,-0.2791 0.371099,-1.24126 0.272568,-3.00593 1.522995,-3.53462 2.685323,-1.13539 0.9523,1.9657 1.997701,2.44485 5.457542,2.5014 1.377316,0.0225 2.757577,0.10452 3.067251,0.18224 0.680757,0.17086 0.957415,1.06948 0.610324,1.98241 -0.137424,0.36145 -0.219506,0.6835 -0.182404,0.71567 0.0371,0.0322 0.628722,0.34036 1.314709,0.68487 0.788672,0.39609 1.802125,1.25073 2.756405,2.32447 1.666194,1.87476 2.022597,2.04785 5.039662,2.44749 3.37906,0.4476 5.623276,1.4962 6.862032,3.20625 1.154447,1.59367 0.962783,2.6486 -0.81712,4.49749 -1.206093,1.25284 -0.989662,1.32266 0.564216,0.18201 0.636379,-0.46715 1.442733,-0.84936 1.791896,-0.84936 0.834009,0 1.61004,0.77971 1.436504,1.44331 -0.121174,0.46337 -0.07497,0.48657 0.519154,0.26069 1.11733,-0.42481 4.041034,-0.30607 4.867361,0.19768 0.43731,0.26659 1.4548,0.50573 2.54807,0.59886 1.93969,0.16524 6.405888,1.02475 9.715018,1.86965 4.65265,1.18792 5.77438,2.73147 3.94673,5.43086 -0.3716,0.54886 -1.75247,2.07392 -3.06857,3.38903 -2.30063,2.29888 -2.38493,2.42056 -2.18559,3.15476 0.11403,0.42 0.19986,1.86587 0.19073,3.21302 -0.0141,2.08657 -0.104,2.62516 -0.60668,3.63604 -0.78916,1.58699 -1.86668,2.22471 -3.17083,1.87661 -0.51597,-0.13772 -0.938088,-0.16804 -0.938088,-0.0674 0,0.25554 -0.62965,0.48882 -2.18406,0.80919 l -1.3347,0.27509 -0.12134,2.19674 c -0.13984,2.5317 -0.41773,3.10232 -2.06168,4.23339 -2.103922,1.44753 -4.102213,1.85632 -5.443127,1.11348 -0.53058,-0.29393 -0.679581,-0.26018 -1.511316,0.34233 -0.507488,0.36762 -1.867319,0.96292 -3.021846,1.32288 -1.154529,0.35997 -2.00328,0.74534 -1.886115,0.85639 0.520882,0.4937 14.966894,2.64526 20.233602,3.01355 2.53153,0.17703 10.32234,-0.0959 13.58972,-0.47604 z m -41.389524,-5.86853 c -1.170274,-1.80154 -2.161898,-3.3792 -4.080199,-6.49152 -1.151717,-1.86859 -2.558204,-3.95826 -3.125526,-4.64373 -3.448079,-4.1661 -4.660182,-5.40817 -6.037874,-6.18715 -6.48872,-3.66887 -9.995658,-7.16454 -12.79625,-12.75512 -1.414037,-2.82273 -1.952265,-4.3491 -2.122476,-6.01916 -0.186169,-1.82666 0.11329,-3.00077 1.526439,-5.98484 0.895392,-1.89075 1.080011,-2.50047 0.955238,-3.15476 -0.224966,-1.17965 -1.971521,-3.80158 -2.851919,-4.28129 -2.089114,-1.13831 -2.737795,-2.11243 -3.587536,-5.38732 -1.263695,-4.87029 -1.475266,-5.24357 -4.244644,-7.48886 -2.793539,-2.26488 -5.95336,-5.39276 -6.530896,-6.46487 -0.567828,-1.0541 -0.632864,-2.60955 -0.395715,-9.46427 0.1068,-3.08702 0.09481,-3.18029 -0.558209,-4.3436 -0.589663,-1.05045 -0.667352,-1.44152 -0.667352,-3.35931 0,-2.28053 0.6854,-6.23668 1.360437,-7.85249 0.21746,-0.52052 0.759801,-1.7354 1.205202,-2.69973 1.0308,-2.23176 1.241955,-3.03738 1.680663,-6.412257 0.584023,-4.49273 1.373787,-5.78064 9.576154,-15.61642 2.954334,-3.54266 3.674577,-4.46544 7.131161,-9.13648 1.389632,-1.87788 2.72479,-3.35686 3.976889,-4.40528 2.671656,-2.23708 3.142263,-2.79194 3.807366,-4.48908 0.32426,-0.82741 0.537085,-1.50438 0.472944,-1.50438 -0.204596,0 -2.815603,1.83619 -4.822123,3.39117 -6.0563,4.69339 -10.593805,9.54615 -14.578925,15.59183 -2.379899,3.61045 -6.183667,10.98389 -8.484764,16.44733 -2.292449,5.442917 -4.198952,13.037807 -5.360696,21.355277 -0.608335,4.35535 -0.614255,13.76046 -0.01077,17.10848 1.712926,9.50301 7.697457,25.0993 13.22268,34.45965 3.132632,5.30703 5.951341,8.98312 9.972969,13.00649 6.056923,6.05955 12.236686,10.3816 22.83334,15.96937 1.53491,0.80938 2.830605,1.47341 2.879324,1.47564 0.04872,0.002 -0.106502,-0.29628 -0.344931,-0.66332 z m 98.659614,-29.68869 c 0.68829,-0.94632 1.20388,-1.76812 1.14577,-1.82623 -0.12111,-0.12111 -1.9136,2.1811 -2.33638,3.00078 -0.51584,1.00007 -0.0742,0.56437 1.19061,-1.17455 z m 5.08524,-8.8314 c 0.0206,-0.41625 -1.11084,1.41733 -1.40476,2.2766 -0.1552,0.4537 -0.27688,0.89051 -0.2704,0.9707 0.0175,0.21707 1.66145,-2.96966 1.67516,-3.2473 z m 1.92232,-5.03982 c 1.00876,-3.10597 2.21491,-7.63081 2.21491,-8.3092 0,-0.58928 -0.43041,-0.21206 -0.97416,0.85379 -0.29274,0.57381 -0.48188,1.42641 -0.48188,2.17215 0,0.69441 -0.26847,1.98978 -0.61812,2.98242 -0.49278,1.39901 -1.32327,4.64254 -1.32327,5.16812 0,0.53293 0.368,-0.35938 1.18252,-2.86728 z M 60.397466,142.17975 c -0.08249,-0.13347 -0.25274,-0.24268 -0.378333,-0.24268 -0.125594,0 -0.228351,0.10921 -0.228351,0.24268 0,0.13347 0.17025,0.24267 0.378333,0.24267 0.208082,0 0.31084,-0.1092 0.228351,-0.24267 z m 124.102884,-3.2761 c 0.76166,-7.34466 0.96578,-15.3375 0.50506,-19.77789 -0.37489,-3.61308 -1.15105,-7.08312 -2.49689,-11.16299 l -1.24081,-3.76144 -0.2716,2.58049 c -0.38368,3.64533 -0.94908,4.71543 -2.13948,4.04925 -0.65934,-0.36899 -0.46551,0.21739 0.23133,0.69981 0.34639,0.2398 0.85069,0.64 1.12067,0.88933 0.6142,0.56721 0.95567,0.17664 0.86883,-0.99377 -0.032,-0.43071 0.0762,-0.91745 0.24041,-1.08163 0.517,-0.517 0.93741,0.24995 1.48776,2.71411 0.58792,2.63236 1.96204,11.99729 1.96204,13.37173 0,0.5033 -0.27287,2.04138 -0.60637,3.41795 -0.3335,1.37658 -0.60651,3.00176 -0.60669,3.61152 -1.7e-4,0.60976 -0.17664,1.70179 -0.39214,2.42674 -0.2575,0.86617 -0.34661,1.77568 -0.25991,2.65278 0.14558,1.47268 0.87562,3.52317 1.14781,3.22385 0.0952,-0.10474 0.29772,-1.39166 0.44998,-2.85984 z M 57.2922,141.14223 c 0.54777,-0.54777 0.229116,-0.84381 -1.194568,-1.10979 -1.056962,-0.19746 -1.133686,-0.17592 -1.267125,0.35574 -0.07812,0.31126 -0.440959,0.73587 -0.806307,0.94358 -0.641211,0.36455 -0.60323,0.37502 1.094337,0.30159 1.25916,-0.0545 1.876483,-0.19394 2.173663,-0.49112 z m -16.783944,-1.373 c -0.312937,-0.50634 -0.557596,-2.56683 -0.364947,-3.07353 0.11318,-0.2977 0.430447,-0.61257 0.705034,-0.69972 0.285688,-0.0907 0.499248,-0.36706 0.499248,-0.64611 0,-0.26822 0.331871,-0.81954 0.737492,-1.22516 0.698769,-0.69877 0.717722,-0.76767 0.360941,-1.31218 -0.39706,-0.60599 -1.343283,-0.96929 -1.934084,-0.74258 -0.193266,0.0742 -0.520625,0.70472 -0.727465,1.40123 -0.474845,1.59897 -0.97613,2.15638 -1.939265,2.15638 -2.299764,0 -3.707453,-3.32342 -3.289225,-7.76555 0.355005,-3.77061 1.393743,-6.623 3.015819,-8.28149 1.182635,-1.20919 2.109052,-1.57161 3.035936,-1.18768 0.818254,0.33893 1.196395,0.86088 1.805596,2.4923 0.23674,0.63399 0.503309,1.15216 0.592373,1.1515 0.08906,-7.3e-4 0.192185,-0.51842 0.229159,-1.15059 0.104507,-1.78678 0.414875,-1.9376 2.394931,-1.16376 1.902937,0.74371 2.627286,1.42418 3.003585,2.82164 0.213444,0.79267 0.187213,1.21754 -0.135067,2.18784 -0.666787,2.00751 -0.493678,4.45486 0.303922,4.29674 0.206605,-0.041 0.580577,-0.45668 0.831045,-0.92383 0.37032,-0.69068 0.446471,-1.30273 0.407607,-3.27609 -0.07007,-3.55825 0.498325,-4.79896 2.490323,-5.43588 1.845477,-0.59007 2.896646,-2.40153 3.07771,-5.30375 0.164836,-2.64215 0.398941,-2.92959 2.738952,-3.36297 1.956973,-0.36244 2.096452,-0.4687 3.467912,-2.64188 1.458163,-2.31056 3.704745,-2.83934 7.092657,-1.66938 2.016986,0.69652 3.29027,0.68782 4.385795,-0.03 0.523457,-0.34298 0.598936,-0.53108 0.471319,-1.17455 -0.330767,-1.66779 -2.605307,-2.48016 -6.219814,-2.22146 -2.342739,0.16768 -2.399609,0.15918 -3.008693,-0.4499 -1.255251,-1.25525 -0.485478,-2.813217 1.704541,-3.449877 1.592876,-0.46306 2.504802,-0.3079 3.926165,0.668 0.911921,0.626107 2.488829,1.410967 2.834871,1.410967 0.06769,0 0.06282,-0.30124 -0.01082,-0.66942 -0.272391,-1.361957 1.393036,-2.383867 5.060159,-3.104927 1.167866,-0.22963 2.123394,-0.52222 2.123394,-0.65019 0,-0.36817 -0.961866,-1.63392 -2.513485,-3.30758 l -1.431368,-1.54395 0.152285,-1.48947 c 0.08376,-0.81921 0.220988,-1.85575 0.304963,-2.30342 0.143335,-0.76414 0.12204,-0.79756 -0.347968,-0.54601 -1.18271,0.63296 -3.337841,0.0192 -3.548295,-1.01052 -0.06088,-0.29788 -0.177923,-1.23149 -0.260095,-2.0747 -0.184624,-1.89455 -0.307691,-2.22834 -0.821579,-2.22834 -0.773621,0 -1.421858,0.70972 -1.710683,1.87293 -0.158483,0.63827 -0.812391,1.97951 -1.453132,2.98054 -0.640741,1.00103 -1.415969,2.25686 -1.722732,2.79075 -1.042225,1.81386 -2.400724,3.41701 -3.984334,4.70186 -2.182661,1.77089 -2.441473,1.67082 -2.441473,-0.94395 0,-1.78376 -0.118053,-2.36757 -0.882587,-4.3646 -1.573871,-4.11111 -1.716197,-5.88445 -0.628281,-7.82822 0.895921,-1.60073 3.906362,-3.17138 7.577707,-3.95356 2.718017,-0.57907 4.724044,-1.36425 5.332298,-2.08712 0.935558,-1.11184 0.48582,-1.3812 -1.217697,-0.7293 -1.797478,0.68785 -2.655553,0.66954 -3.39761,-0.0725 -0.628182,-0.62818 -0.764065,-1.54831 -0.344443,-2.33238 0.191185,-0.35724 0.511939,-0.4694 1.342361,-0.4694 0.600131,0 1.770223,-0.22986 2.600203,-0.51081 1.123278,-0.38023 1.85026,-0.47647 2.843758,-0.37645 1.717852,0.17293 2.405534,0.90217 3.144261,3.33427 0.608344,2.00284 1.485041,3.8597 2.039615,4.31996 0.202546,0.1681 0.67317,0.27044 1.045826,0.22743 0.984978,-0.11368 1.220323,-0.99152 0.851782,-3.17716 -0.435206,-2.58101 -1.104982,-3.72582 -2.71336,-4.63781 -1.328494,-0.75328 -1.349752,-0.75655 -4.569159,-0.70083 -4.194547,0.0726 -5.338341,-0.3533 -6.341944,-2.36137 -0.664513,-1.32961 -0.783013,-2.37824 -0.367665,-3.25352 0.350222,-0.73804 0.880277,-1.12059 4.06984,-2.9373 1.574128,-0.89659 2.598133,-1.9626 2.598133,-2.70472 0,-0.55823 -0.06372,-0.59357 -0.788689,-0.43736 -1.100464,0.23711 -6.370195,2.53538 -8.342768,3.6385 -2.43884,1.36388 -3.625356,2.56616 -4.265701,4.32236 -0.573964,1.57416 -1.184113,2.27672 -4.62181,5.32186 -1.02103,0.90444 -2.536912,2.59709 -3.368629,3.76144 -2.397135,3.35586 -4.415965,5.93189 -8.220393,10.48925 -6.767576,8.10695 -7.567937,9.40639 -7.997152,12.98385 -0.429755,3.581947 -0.727909,4.684277 -2.107243,7.790827 -1.500696,3.37988 -1.973339,5.26305 -2.186492,8.71177 -0.143707,2.32511 -0.121566,2.48288 0.520828,3.71144 0.891892,1.70571 0.983142,2.81545 0.605741,7.36658 -0.473834,5.71402 -0.399159,5.94954 2.88435,9.09685 1.418424,1.35958 3.070369,2.85791 3.670986,3.32961 1.06665,0.8377 1.625447,1.11036 1.344727,0.65615 z m 13.366586,-2.27029 c 0.06836,-0.0684 -0.292536,-0.25655 -0.801993,-0.4182 -0.509456,-0.16165 -1.171992,-0.44805 -1.4723,-0.63646 -0.399664,-0.25074 -0.546016,-0.26395 -0.546016,-0.0493 0,0.16131 -0.231644,0.53986 -0.514766,0.84123 l -0.514764,0.54795 1.862774,-0.0805 c 1.024524,-0.0443 1.918706,-0.13642 1.987065,-0.20478 z m -5.740099,-4.30801 c -0.425955,-0.2694 -2.177162,-0.31029 -2.174457,-0.0508 9.71e-4,0.1001 0.57089,0.20318 1.266327,0.22905 0.857162,0.0319 1.149668,-0.0255 0.90813,-0.17828 z M 173.82396,105.35552 c -0.18919,-0.23439 -0.61623,-0.9586 -0.94898,-1.60936 -0.76466,-1.49545 -3.79318,-4.079007 -4.13969,-3.53148 -0.12063,0.1906 -0.22099,0.40973 -0.22303,0.48695 -0.0107,0.405 1.60106,2.46994 2.49135,3.19181 2.2245,1.80367 3.72317,2.58059 2.82035,1.46208 z M 70.412684,101.53453 c 0.03608,-0.0291 -0.37109,-0.34191 -0.904823,-0.69511 -1.382512,-0.914897 -3.533085,-0.82508 -4.182375,0.17468 -0.419058,0.64526 0.319858,0.84113 2.66846,0.70737 1.294225,-0.0737 2.382657,-0.15784 2.418738,-0.18694 z m 78.431586,-2.151957 c -0.008,-0.50948 -0.015,-0.51048 -0.36402,-0.049 -0.45716,0.60442 -0.4541,0.885937 0.008,0.708717 0.20021,-0.0768 0.36054,-0.373697 0.3563,-0.659727 z m 29.22713,-2.8027 c -0.6296,-1.48368 -1.17371,-2.66863 -1.20913,-2.6332 -0.0354,0.0354 0.15908,1.03741 0.43223,2.22663 0.36686,1.59724 0.65713,2.31098 1.11086,2.73148 0.33782,0.31308 0.65844,0.52502 0.71249,0.47097 0.054,-0.054 -0.41685,-1.3122 -1.04645,-2.79588 z m -30.55412,-3.79295 c -0.40041,-0.18335 -1.05563,-0.32531 -1.45604,-0.31548 -0.58476,0.0144 -0.48925,0.0793 0.48534,0.32977 1.57294,0.40431 1.87518,0.39986 0.9707,-0.0143 z m -3.49423,-0.85024 c -0.58713,-0.26638 -1.12237,-0.42946 -1.18942,-0.36241 -0.15032,0.15033 1.39198,0.83683 1.8929,0.84257 0.20021,0.002 -0.11636,-0.21378 -0.70348,-0.48016 z m 10.29392,-0.31294 c -0.40872,-0.62378 -1.27521,-1.15592 -0.95203,-0.58467 0.28945,0.51163 1.14599,1.39604 1.25066,1.29136 0.0546,-0.0546 -0.0798,-0.37264 -0.29863,-0.70669 z m -28.88299,-2.42192 c 1.35216,-0.49366 1.46165,-0.5902 1.53454,-1.35308 0.0683,-0.71441 0.0208,-0.79733 -0.36402,-0.63615 -1.35395,0.56712 -1.50162,0.49915 -3.48649,-1.60495 -1.05508,-1.11845 -1.92114,-1.95 -1.92457,-1.84787 -0.003,0.10212 0.30932,0.75734 0.69502,1.45604 0.38569,0.6987 0.94061,2.00748 1.23315,2.9084 0.29254,0.90093 0.60489,1.63156 0.69411,1.62363 0.0892,-0.008 0.81744,-0.25365 1.61826,-0.54602 z m -33.735391,-4.47504 c 0.785522,-1.06487 1.116853,-1.86286 1.441743,-3.47233 0.093,-0.46048 0.44048,-0.76334 1.34501,-1.17214 0.89801,-0.40584 1.60936,-1.02233 2.69731,-2.33759 1.65394,-1.99952 2.34784,-2.54287 3.247408,-2.54287 0.55838,0 0.61523,-0.0918 0.61523,-0.99392 0,-0.54666 -0.18016,-1.29891 -0.40036,-1.67167 -0.46121,-0.78076 -0.2966,-1.44997 0.40158,-1.63254 0.63208,-0.1653 0.62315,-0.90739 -0.0287,-2.38089 -0.47436,-1.07238 -0.49098,-1.29432 -0.22186,-2.96257 0.15999,-0.99184 0.25118,-1.84308 0.20262,-1.89164 -0.0486,-0.0486 -0.52204,0.0123 -1.052168,0.13519 -1.35981,0.31527 -2.80626,0.27274 -3.48302,-0.10241 -0.48172,-0.26704 -0.88506,-0.26132 -2.42674,0.0344 -1.553027,0.29789 -2.222294,0.30612 -4.181264,0.0514 -3.379322,-0.4394 -3.366474,-0.44524 -6.131822,2.78991 l -0.941224,1.10112 1.082334,-0.14835 c 1.604557,-0.21992 3.402611,0.80923 4.245566,2.43004 0.317189,0.60988 0.325717,1.07847 0.06404,3.51877 -0.256098,2.38834 -0.407065,2.97788 -0.995658,3.88816 -0.381582,0.59013 -0.693786,1.39619 -0.693786,1.79125 0,1.31702 3.21953,6.72138 4.004113,6.72138 0.197612,0 0.741934,-0.51871 1.209602,-1.15269 z m 14.944151,-5.65069 c 0.54947,-0.29407 0.62115,-1.09572 0.12292,-1.37478 -0.19056,-0.10674 -0.90038,-0.15623 -1.57738,-0.10998 -1.08157,0.0739 -1.23091,0.14897 -1.23091,0.61882 0,0.2941 0.13105,0.66577 0.29121,0.82594 0.35751,0.35751 1.75719,0.38089 2.39416,0.04 z m 20.6113,-7.59338 c 0,-0.0435 -0.30031,-0.34378 -0.66736,-0.66736 l -0.66735,-0.58831 0.58832,0.66735 c 0.54987,0.62374 0.74639,0.77864 0.74639,0.58832 z m -47.447875,-5.54338 c -0.0038,-1.00144 -0.129523,-1.51302 -0.462289,-1.88072 -0.652197,-0.72067 -0.91518,-0.63787 -1.671622,0.52627 -0.885242,1.36236 -0.7904,2.1097 0.319045,2.51398 1.560396,0.56861 1.820753,0.40226 1.814866,-1.15953 z m -5.45497,-9.31055 c 0,-0.29735 -0.09797,-0.32012 -0.485347,-0.1128 -0.266941,0.14286 -0.485347,0.31051 -0.485347,0.37255 0,0.062 0.218406,0.1128 0.485347,0.1128 0.274581,0 0.485347,-0.16178 0.485347,-0.37255 z"
       id="path9250" />
  </g>
</svg>
