<?xml version="1.0" encoding="UTF-8" standalone="no"?>
<!-- Created with Inkscape (http://www.inkscape.org/) -->

<svg
   width="210mm"
   height="297mm"
   viewBox="0 0 210 297"
   version="1.1"
   id="svg5"
   inkscape:version="1.1.2 (08b2f3d93c, 2022-04-05)"
   sodipodi:docname="leaf.svg"
   xmlns:inkscape="http://www.inkscape.org/namespaces/inkscape"
   xmlns:sodipodi="http://sodipodi.sourceforge.net/DTD/sodipodi-0.dtd"
   xmlns="http://www.w3.org/2000/svg"
   xmlns:svg="http://www.w3.org/2000/svg">
  <sodipodi:namedview
     id="namedview7"
     pagecolor="#ffffff"
     bordercolor="#666666"
     borderopacity="1.0"
     inkscape:pageshadow="2"
     inkscape:pageopacity="0.0"
     inkscape:pagecheckerboard="0"
     inkscape:document-units="mm"
     showgrid="false"
     inkscape:zoom="0.5297696"
     inkscape:cx="264.26582"
     inkscape:cy="555.90204"
     inkscape:window-width="1920"
     inkscape:window-height="1027"
     inkscape:window-x="0"
     inkscape:window-y="27"
     inkscape:window-maximized="1"
     inkscape:current-layer="layer2" />
  <defs
     id="defs2" />
  <g
     inkscape:groupmode="layer"
     id="layer2"
     inkscape:label="Layer 2"
     style="display:inline">
    <path
       style="fill:#000000;stroke-width:0.196037"
       d="m 121.83446,253.47801 c -0.93672,-0.19751 -1.7845,-0.40948 -1.88397,-0.47095 -0.40209,-0.24851 -7.92848,-1.87853 -9.96003,-2.15709 -2.7164,-0.37246 -7.03144,-1.44979 -9.88737,-2.46856 -1.197361,-0.42712 -3.633261,-1.18198 -5.413111,-1.67748 -7.428245,-2.06799 -11.039198,-3.79567 -14.361069,-6.87113 -0.656497,-0.60782 -1.193634,-1.06462 -1.193634,-1.01517 0,0.54232 -1.084455,4.25104 -1.318801,4.51016 -0.830585,0.9184 -2.738401,0.13035 -7.012753,-2.89647 -1.078202,-0.76352 -3.37183,-2.29531 -5.096951,-3.40399 -4.411198,-2.8349 -7.396203,-5.19051 -10.945415,-8.63748 -2.841587,-2.75974 -4.100469,-4.63317 -5.259029,-7.82636 -0.530843,-1.46312 -0.625982,-2.02349 -0.705204,-4.15379 -0.07787,-2.0939 -0.0292,-2.68986 0.325114,-3.98136 0.946949,-3.45165 1.8731,-4.57617 6.81719,-8.27725 2.562751,-1.91845 4.657772,-3.67919 6.151722,-5.17011 2.169036,-2.16464 4.667489,-5.1951 4.4568,-5.4058 -0.308105,-0.30811 -7.11294,2.62744 -10.679153,4.60687 -6.454495,3.58261 -9.407156,5.88499 -13.592682,10.5991 -1.539088,1.73347 -3.045536,3.27957 -3.347663,3.43582 -1.233011,0.63761 -2.19897,0.14147 -2.987002,-1.53411 -1.06303,-2.26034 -3.566615,-10.70684 -4.551255,-15.35488 -0.385978,-1.82203 -0.962527,-4.5478 -1.281218,-6.0573 -0.31869,-1.50947 -0.630222,-3.40613 -0.692288,-4.21478 -0.109009,-1.42031 -0.09107,-1.50273 0.528757,-2.42553 0.688926,-1.0257 2.52551,-2.6355 4.344744,-3.80825 0.619023,-0.39903 1.126267,-0.78466 1.12721,-0.85695 9.82e-4,-0.0722 -0.593746,-0.18731 -1.321532,-0.25562 -2.453165,-0.23038 -3.238919,-0.39294 -3.43993,-0.71214 -0.153279,-0.24337 0.14837,-0.95674 1.326252,-3.13657 2.523084,-4.66929 5.10713,-8.10346 8.855494,-11.76891 3.323565,-3.25007 6.048931,-5.05471 8.696067,-5.75825 2.333446,-0.62015 5.992364,-0.20769 8.857905,0.99831 4.112615,1.73096 10.95828,7.89216 13.923217,12.53107 0.979652,1.53276 6.878838,13.01285 7.706283,14.9968 0.292298,0.70084 1.482942,3.25912 2.645883,5.68507 2.419965,5.04819 3.143004,6.72078 5.07523,11.74048 1.378786,3.58191 1.906071,4.66985 3.810986,7.86317 1.380592,2.31437 4.828351,7.23507 6.38706,9.1157 0.714905,0.86258 1.826625,2.27219 2.470486,3.13247 3.31641,4.4312 8.06479,8.04206 12.49379,9.5008 1.33286,0.439 1.8171,0.8848 1.59361,1.46717 -0.14841,0.38663 -0.64078,0.402 -0.78563,0.0245 -0.06,-0.15606 -0.69668,-0.47471 -1.4151,-0.70812 -4.2973,-1.39607 -9.44231,-5.37945 -12.772879,-9.88904 -0.477445,-0.64646 -1.450718,-1.88112 -2.162831,-2.74368 -1.605301,-1.94446 -5.016526,-6.79699 -6.614839,-9.40975 -1.517291,-2.4803 -2.842518,-5.27789 -4.271712,-9.01769 -1.507381,-3.94439 -2.64273,-6.55055 -4.739769,-10.88003 -0.966144,-1.99467 -2.227698,-4.68527 -2.80345,-5.97911 -1.075776,-2.4175 -5.724249,-11.51718 -7.081044,-13.86161 -1.435481,-2.48037 -4.287776,-5.66415 -7.566581,-8.44595 -3.722184,-3.15797 -5.975811,-4.45084 -8.967885,-5.14476 -1.546038,-0.35854 -4.435334,-0.40049 -5.623985,-0.0817 -4.953487,1.32871 -12.211843,8.55713 -16.605396,16.5369 -0.765973,1.39121 -1.392681,2.59153 -1.392681,2.66738 0,0.076 0.771895,0.19751 1.715322,0.27046 0.943426,0.0729 2.064166,0.21279 2.490534,0.31059 0.723493,0.16625 0.900067,0.10767 2.646494,-0.87712 6.427901,-3.6244 13.338872,-4.63472 17.450704,-2.5511 3.646156,1.84764 4.221394,5.13008 1.182849,6.74963 -3.512389,1.87206 -7.517419,1.56486 -17.546418,-1.34594 l -2.744514,-0.79654 -1.919109,1.29701 c -2.237994,1.51253 -3.951063,3.02312 -4.389234,3.87046 -0.387701,0.74972 -0.266326,2.41099 0.410382,5.61703 2.096771,9.93384 2.720172,12.35065 4.839252,18.76081 0.910686,2.75481 1.43415,3.65895 2.168322,3.74511 0.425173,0.0498 0.777407,-0.2402 2.142199,-1.76433 3.602682,-4.02328 6.85852,-7.07457 9.294531,-8.71058 5.411721,-3.63447 10.855983,-6.36423 16.986614,-8.51708 1.087519,-0.3819 1.354826,-0.41538 1.612138,-0.2019 0.280367,0.23269 0.279593,0.31223 -0.0086,0.87341 -0.505837,0.98529 -2.955606,4.15111 -4.452658,5.75412 -1.570558,1.68176 -4.142476,3.83019 -7.963699,6.65243 -2.884069,2.13009 -3.856673,3.11959 -4.704512,4.78619 -0.958061,1.88327 -1.251345,3.20321 -1.239136,5.57679 0.0097,1.88832 0.08893,2.38793 0.637263,4.01876 1.192673,3.54722 2.935418,5.98702 6.532335,9.1451 3.658599,3.21224 5.759061,4.81789 9.263278,7.08112 1.832941,1.18382 4.548559,2.99529 6.034706,4.02545 2.682447,1.85945 4.091727,2.58762 4.757241,2.45805 0.260113,-0.0507 0.483037,-0.58142 0.892873,-2.12588 0.300413,-1.13211 0.550989,-2.21099 0.556836,-2.39748 0.0058,-0.18662 -0.343544,-0.80402 -0.776426,-1.37226 -1.795538,-2.357 -3.852862,-7.43954 -4.82225,-11.91321 -0.494128,-2.28036 -0.491676,-6.88822 0.0049,-9.21371 1.048875,-4.9119 3.09019,-8.07801 6.137729,-9.51974 3.05843,-1.44686 6.23347,0.15375 7.403128,3.73207 1.266999,3.87615 -0.184745,12.61435 -3.24876,19.5546 -0.441437,0.99988 -1.419424,3.27355 -2.173307,5.05259 l -1.370698,3.2346 1.397779,1.33325 c 3.231154,3.082 6.870368,4.83301 14.184004,6.82471 1.636911,0.44578 3.946585,1.158 5.13261,1.58271 3.10601,1.11225 6.84381,2.05149 9.99788,2.51225 2.77261,0.40505 4.95876,0.87501 9.60577,2.06494 1.40167,0.35888 2.9675,0.71263 3.47967,0.78603 1.11937,0.16045 1.07522,0.44916 0.61184,-4.00024 -0.27479,-2.63878 -0.28725,-3.61074 -0.0894,-6.97329 0.34976,-5.9432 1.19478,-10.29766 2.7037,-13.93218 0.26857,-0.64692 1.26453,-2.80823 2.21324,-4.80291 1.85632,-3.90295 2.47046,-5.63002 3.11874,-8.7706 0.84744,-4.10535 0.94028,-6.78083 0.37049,-10.67604 l -0.22089,-1.50931 -2.46707,-0.5914 c -2.88922,-0.69258 -6.87408,-1.08083 -9.23034,-0.8993 -0.91648,0.0706 -3.56297,0.38116 -5.8811,0.69013 -6.75621,0.9005 -7.99039,1.02023 -10.684,1.03648 -3.48742,0.0208 -5.556647,-0.60598 -7.220497,-2.18802 -1.076362,-1.02343 -1.351889,-1.66069 -1.343542,-3.10751 0.01968,-3.41509 3.241953,-6.68526 7.819009,-7.9353 1.27898,-0.3493 2.09049,-0.41931 4.95983,-0.42797 3.82743,-0.0116 6.28858,0.34585 10.71142,1.55541 4.64139,1.26934 6.9221,2.27052 13.07525,5.73974 1.92331,1.08439 3.44774,1.84345 3.38763,1.68681 -0.18407,-0.47989 -2.47728,-3.8517 -3.32615,-4.89078 -1.42291,-1.74171 -5.15666,-5.84509 -6.53247,-7.17915 -2.05278,-1.9905 -3.46049,-3.04229 -5.32204,-3.97641 -4.70354,-2.36027 -10.34974,-3.2086 -17.59901,-2.64423 -7.747057,0.60309 -10.5688,0.16532 -12.923564,-2.00527 -1.397256,-1.28796 -1.946935,-2.49847 -1.947417,-4.28868 -5.88e-4,-1.84215 0.441638,-2.75777 2.129877,-4.41083 1.973027,-1.93189 4.345601,-2.89461 7.074361,-2.87055 4.115013,0.0363 13.182583,3.5381 19.407633,7.49507 3.11747,1.98162 5.39785,3.20216 6.56722,3.51504 1.23572,0.33061 3.31029,0.2762 4.28128,-0.1123 0.8143,-0.32582 0.81566,-0.32811 0.81566,-1.37323 0,-3.31754 -1.22864,-8.57978 -2.74057,-11.7378 -2.12782,-4.44444 -8.41578,-12.04497 -11.82598,-14.29456 -2.47872,-1.63513 -6.76424,-3.27322 -9.65774,-3.69159 l -1.69981,-0.24576 -1.20159,0.66491 c -0.660873,0.36572 -3.274676,1.87211 -5.80845,3.34758 -8.512933,4.95718 -11.928795,6.68572 -15.878964,8.03527 -1.518282,0.51869 -2.262216,0.65379 -4.026735,0.73122 -1.930452,0.0847 -2.274276,0.0477 -3.181097,-0.3424 -2.962444,-1.27442 -4.903699,-5.94311 -4.102626,-9.86675 0.770935,-3.77603 3.426443,-7.15273 8.156987,-10.37226 4.141081,-2.81834 10.116811,-4.6636 16.993055,-5.24728 4.296145,-0.36468 7.99092,0.21324 12.46025,1.94884 3.11452,1.20951 3.04286,1.60086 -0.51839,2.83103 -3.21916,1.11201 -7.426987,2.80484 -9.811538,3.94721 -2.964247,1.4201 -5.384745,3.08691 -7.670515,5.28211 l -1.928204,1.85183 2.332523,-0.97905 c 4.340796,-1.82198 8.237322,-2.72706 11.740218,-2.72706 h 1.965126 l 4.72345,-2.34663 c 11.72652,-5.82581 26.08196,-10.67568 35.1169,-11.86396 2.98294,-0.39234 8.29146,-0.39621 11.36235,-0.009 1.29384,0.16347 2.43385,0.29785 2.53334,0.29871 0.0996,7.8e-4 -0.96054,-1.16731 -2.35564,-2.59593 -1.39509,-1.42862 -3.11647,-3.2591 -3.8253,-4.06775 -2.00712,-2.28983 -8.00698,-9.91143 -10.71483,-13.61104 -4.05757,-5.54365 -6.62654,-8.43724 -9.87075,-11.117978 -2.91138,-2.40572 -2.52209,-2.3188 -3.5642,-0.79589 -1.05626,1.54356 -4.40717,4.906978 -7.58724,7.615528 -5.73203,4.88217 -8.74339,7.72093 -12.49963,11.78322 -0.92219,0.99733 -1.74475,1.81335 -1.82789,1.81335 -0.0832,0 -0.28981,-0.13869 -0.45924,-0.30807 -0.24184,-0.24184 -0.31304,-0.80013 -0.33125,-2.59747 -0.0127,-1.25918 -0.0789,-2.54784 -0.14703,-2.86363 -0.12063,-0.55933 -0.14959,-0.53391 -1.11759,0.98017 -1.276395,1.99647 -3.160997,4.3264 -4.401937,5.44212 -1.349851,1.21362 -2.628978,2.03146 -5.497983,3.51526 -1.355255,0.70091 -3.162528,1.72832 -4.016158,2.28314 -0.853632,0.55481 -1.685548,0.98186 -1.848703,0.94901 -0.377145,-0.0759 -0.36632,-1.01859 0.05684,-4.95008 0.795738,-7.39282 0.893177,-14.0396 0.257247,-17.54793 -1.014549,-5.597098 -2.883592,-9.156778 -5.134136,-9.778178 -1.017971,-0.28108 -1.63849,0.049 -2.193587,1.16674 -0.839957,1.69138 -1.073856,3.46591 -0.967461,7.339848 0.132603,4.82781 0.846316,8.28036 3.181234,15.38889 1.437208,4.37549 2.469612,8.32176 2.513021,9.60578 0.02811,0.83127 -0.01134,0.90231 -0.683909,1.23116 -0.392554,0.19195 -1.671693,0.5641 -2.842532,0.82704 -4.455413,1.00053 -5.586702,1.09497 -15.263248,1.2743 -5.067547,0.094 -10.095886,0.26486 -11.174088,0.37988 -4.66679,0.49784 -6.831553,0.88618 -10.021546,1.79775 -5.174301,1.47861 -5.108234,1.51216 -4.479505,-2.27553 0.82789,-4.98745 0.503253,-9.90854 -1.5648,-23.72043 -0.748581,-4.99954 -0.986073,-8.406958 -0.71363,-10.238748 0.441677,-2.96963 2.039579,-5.35022 4.288573,-6.38921 0.849677,-0.39254 1.21917,-0.42589 4.551426,-0.41083 3.188537,0.0143 4.06482,0.0942 7.253355,0.66075 8.470434,1.50497 13.698327,0.74265 15.230855,-2.22094 0.690849,-1.33595 0.123365,-3.79059 -1.145823,-4.95626 -1.374246,-1.26216 -3.822797,-1.93146 -6.439605,-1.76024 -4.142588,0.27105 -8.974986,1.89307 -18.133386,6.08654 -2.796448,1.28045 -3.822714,1.20484 -3.822714,-0.28162 0,-1.83967 1.281128,-7.57004 2.456664,-10.98846 0.7939,-2.30862 4.086146,-9.17431 5.605275,-11.6893 2.356551,-3.901393 5.379595,-7.427294 6.971944,-8.131665 1.580511,-0.699135 2.471909,-0.140011 4.5917,2.880064 2.607774,3.715324 7.983609,8.966681 10.443366,10.201561 1.713419,0.86019 2.66051,0.90037 3.263104,0.13844 0.34696,-0.4387 0.406583,-0.70836 0.320164,-1.44796 -0.221931,-1.89935 -1.865186,-5.003815 -4.536112,-8.569729 -2.515387,-3.358259 -3.412979,-4.143995 -8.199918,-7.178051 -4.903427,-3.107889 -4.898134,-3.716933 0.04348,-5.006092 3.988794,-1.040587 6.336528,-2.002917 10.031874,-4.112041 4.870693,-2.779956 7.497926,-3.720246 10.410248,-3.72584 1.298701,-0.0025 1.582047,0.0605 2.038571,0.453178 0.498312,0.42863 0.540563,0.596735 0.702118,2.793522 0.214891,2.922081 0.843222,6.762725 1.36779,8.360638 0.744179,2.266892 1.505952,3.504762 3.13965,5.101885 0.854741,0.835607 1.62592,1.519284 1.713728,1.519284 0.284914,0 0.605879,-2.175122 0.605071,-4.100456 -0.0016,-3.558187 -0.898975,-7.32563 -3.041829,-12.768978 -1.03343,-2.625155 -1.131507,-3.183156 -0.595626,-3.388793 0.42336,-0.162447 4.13136,0.802092 5.903418,1.535639 6.02221,2.492902 9.40717,5.018229 11.47708,8.562406 1.3148,2.25124 1.78434,3.726629 1.89213,5.945394 0.0881,1.813439 0.0488,2.099948 -0.52406,3.822713 -1.06744,3.210001 -3.36845,6.687302 -6.485814,9.801381 -2.215329,2.21299 -7.611132,6.92648 -12.447226,10.87324 -6.084806,4.96583 -7.953474,6.60807 -11.828462,10.39519 -7.107944,6.94677 -12.07122,13.306998 -15.192691,19.468788 -1.796917,3.54711 -2.881331,6.82429 -3.548102,10.72268 -0.181827,1.06313 -0.315481,1.38766 -0.593495,1.44119 -0.33111,0.0637 -0.348582,-0.0438 -0.226306,-1.39329 0.707202,-7.80424 5.909799,-17.13307 15.059185,-27.002778 4.396109,-4.7422 8.100884,-8.11961 15.83977,-14.44012 6.18311,-5.04988 11.778512,-10.04396 13.659424,-12.19149 2.527197,-2.885428 4.059207,-5.401598 4.966037,-8.156207 1.25624,-3.815953 -0.10326,-8.100377 -3.706964,-11.682442 -2.094745,-2.082168 -3.305297,-2.879432 -6.776655,-4.46307 -2.453137,-1.119125 -6.425555,-2.405923 -6.670635,-2.160843 -0.05182,0.05182 0.248016,0.932145 0.666312,1.956266 2.959151,7.244904 3.852606,13.400163 2.547335,17.549307 -0.409926,1.303064 -1.18211,0.972752 -3.659566,-1.56543 C 84.220738,55.91265 83.674262,55.171241 83.167269,54.073918 82.061915,51.681524 81.451047,48.79764 81.037666,44.020142 l -0.236291,-2.730844 -0.588109,-0.164926 c -0.340447,-0.09546 -1.274893,-0.07675 -2.218971,0.04446 -2.515052,0.322872 -4.97706,1.307056 -8.524001,3.407453 -3.600295,2.131993 -6.392093,3.290958 -10.462357,4.343262 -1.475072,0.381357 -2.750828,0.735945 -2.835011,0.787972 -0.341336,0.210956 0.136561,0.692301 1.658518,1.670443 4.365541,2.805707 5.553321,3.642331 6.718115,4.731934 3.253099,3.043116 7.192853,9.240926 7.733599,12.166076 0.261341,1.41373 -0.06272,2.40937 -0.989557,3.04016 -1.310582,0.89198 -3.382657,0.28682 -5.906046,-1.72488 -2.380513,-1.8978 -6.44065,-6.123297 -8.433432,-8.776925 -2.089387,-2.782264 -2.641866,-3.293544 -3.363291,-3.112478 -3.016387,0.757066 -9.633653,11.191323 -12.643337,19.936313 -1.015941,2.95194 -2.553925,9.95795 -2.282434,10.39723 0.143485,0.23216 0.978712,-0.0692 4.05862,-1.46456 12.102337,-5.48284 18.165989,-6.69541 22.53524,-4.50643 3.542565,1.77481 4.421949,6.24214 1.689204,8.58127 -1.859166,1.59138 -5.762293,2.32592 -10.130136,1.90644 -1.364857,-0.13107 -3.187286,-0.3682 -4.049849,-0.52693 -3.84411,-0.70741 -5.905826,-0.90522 -8.71562,-0.8362 -3.253773,0.0799 -3.798812,0.26347 -5.230669,1.76146 -2.354498,2.46324 -2.51404,5.08101 -0.966776,15.862908 1.836537,12.79768 2.110878,17.11964 1.395498,21.98461 -0.185995,1.26485 -0.308202,2.37758 -0.271579,2.47272 0.03663,0.0952 1.081075,-0.12711 2.321005,-0.49415 1.239933,-0.36694 2.916046,-0.83759 3.724697,-1.04589 3.578717,-0.92185 13.795724,-1.71799 19.309605,-1.5047 3.320739,0.1285 8.298743,-0.12549 11.076069,-0.56484 2.830102,-0.4478 6.304488,-1.3104 6.412582,-1.59209 0.176966,-0.46115 -0.953067,-4.81669 -2.421917,-9.33499 -2.386012,-7.33952 -3.147304,-10.90596 -3.334789,-15.62251 -0.176896,-4.450528 0.462864,-7.717138 1.786238,-9.120318 0.560858,-0.59469 0.763035,-0.68151 1.586899,-0.68151 1.972423,0 3.519892,1.28551 4.805817,3.99227 0.882547,1.85769 1.564243,4.133378 2.063282,6.887768 0.606431,3.34715 0.338994,13.53233 -0.513082,19.54025 -0.108893,0.76785 -0.171131,1.42299 -0.138298,1.45582 0.03283,0.0329 0.618818,-0.29377 1.302163,-0.72585 0.683346,-0.43208 2.135646,-1.23341 3.227335,-1.78075 4.131117,-2.07123 6.141281,-3.71467 8.588101,-7.02133 1.335719,-1.80511 2.708529,-4.15852 2.708529,-4.64324 0,-0.34382 -0.57742,-2.27127 -2.631878,-8.78528 -1.33638,-4.237218 -1.873014,-6.725568 -2.0083,-9.312378 -0.17215,-3.29163 0.446412,-5.65777 1.915318,-7.32653 1.037764,-1.17897 1.93062,-1.44317 3.41689,-1.0111 1.95634,0.56873 3.59374,2.72571 4.34842,5.72829 0.52566,2.09138 0.46826,7.18368 -0.11109,9.855208 -0.56753,2.61704 -1.54834,5.64727 -2.84677,8.79509 -0.86288,2.09194 -1.00136,2.5937 -0.87519,3.17128 0.0824,0.37736 0.21066,1.76407 0.28494,3.08153 l 0.13506,2.39544 2.55428,-2.65754 c 2.70853,-2.81802 6.50241,-6.32239 11.01115,-10.17092 3.59724,-3.07049 6.36407,-5.847508 7.3576,-7.384698 l 0.80118,-1.23956 -0.49647,-0.39269 c -0.27308,-0.21598 -1.57949,-1.0034 -2.90318,-1.74982 -4.35078,-2.45339 -5.90816,-3.51002 -7.67358,-5.20628 -2.3805,-2.28726 -4.02237,-4.53562 -5.51429,-7.55123 -1.5237,-3.07989 -1.85356,-4.24675 -1.99502,-7.05732 -0.23859,-4.74051 1.55671,-8.61384 5.05893,-10.914613 1.40665,-0.924074 2.52871,-1.321597 4.24661,-1.504473 2.69334,-0.286713 5.84605,0.443585 8.40159,1.946168 1.85697,1.091847 4.34641,3.719698 5.33416,5.630748 1.76437,3.41363 2.37927,6.11926 2.37927,10.46908 0,4.58585 -0.9613,8.4633 -2.39793,9.67214 -0.31499,0.26504 -0.63729,0.4819 -0.71622,0.4819 -0.54236,0 -0.87369,-0.71374 -1.50249,-3.23648 -1.16464,-4.6727 -3.03823,-7.87661 -5.54782,-9.48701 -0.52026,-0.33385 -0.99612,-0.607 -1.05746,-0.607 -0.4559,0 1.1787,3.41439 3.3482,6.99374 0.99175,1.63625 2.03349,3.57701 2.31495,4.31281 0.8507,2.22383 0.85179,5.27954 0.002,7.51296 -0.0769,0.20248 0.43932,0.72145 1.65766,1.66631 3.66021,2.83859 7.04036,6.545088 11.35114,12.447028 2.62362,3.59203 8.89576,11.54714 10.61022,13.45718 0.66394,0.7397 2.553,2.71973 4.1979,4.4001 l 2.99074,3.05521 1.63588,0.34539 c 1.95474,0.41269 10.28247,2.48603 12.22184,3.04282 0.75475,0.21672 2.62936,0.8481 4.16579,1.40315 2.52461,0.91201 2.79352,1.05389 2.79352,1.47388 0,0.2556 -0.0662,0.46366 -0.14703,0.46236 -0.0808,-0.001 -1.20562,-0.39878 -2.49946,-0.88325 -3.17369,-1.18837 -4.63857,-1.6208 -10.48797,-3.096 -7.50463,-1.89265 -7.11064,-2.05827 -3.52866,1.48342 4.43215,4.38228 9.51483,8.08299 14.49515,10.55393 1.90925,0.94728 2.1381,1.11614 2.1522,1.58822 l 0.0162,0.52826 -1.05934,-0.48498 c -5.73865,-2.62723 -11.69526,-6.91883 -16.89625,-12.17334 l -3.35086,-3.38536 -1.94213,-0.28996 c -9.75005,-1.45564 -16.88341,-0.44402 -30.95553,4.39003 -5.99708,2.06013 -11.08198,4.17086 -16.46707,6.83548 l -3.72469,1.84303 2.05838,0.52815 c 3.53108,0.90599 6.74561,2.3322 9.01768,4.0009 2.38362,1.75062 5.74328,5.52078 9.11253,10.22589 2.9073,4.06002 4.75188,9.55338 5.12005,15.24816 0.12364,1.91244 0.10535,2.07385 -0.27915,2.45832 -0.681,0.681 -2.43357,1.07962 -4.24876,0.96637 -2.12991,-0.1329 -3.56427,-0.75815 -7.78943,-3.39561 -8.09301,-5.05191 -17.535272,-8.50444 -21.229553,-7.76252 -2.533915,0.50888 -5.309689,2.45346 -6.304498,4.41661 -0.423786,0.8363 -0.486475,1.17386 -0.405453,2.18326 0.05272,0.65669 0.239914,1.47259 0.416005,1.81311 0.83907,1.62258 3.026577,2.9788 5.469198,3.3908 1.451745,0.24485 3.123375,0.207 9.309281,-0.21047 4.17812,-0.28194 7.02661,-0.0898 10.62593,0.7165 5.46491,1.22433 8.12629,2.70299 12.17119,6.76229 2.8333,2.8434 5.50681,5.86964 7.07947,8.01355 1.32621,1.80788 3.69342,5.56975 3.69342,5.86938 0,0.57538 -0.77732,0.31798 -3.27225,-1.08355 -5.0328,-2.82717 -5.73527,-3.20916 -7.86974,-4.27966 -3.65746,-1.83428 -8.18572,-3.21652 -13.26456,-4.04895 -2.10245,-0.3446 -3.06313,-0.39959 -5.48901,-0.31425 -3.27217,0.11508 -4.54468,0.38804 -6.57342,1.40969 -2.55341,1.28587 -4.326184,3.43525 -4.621114,5.60278 -0.350872,2.57868 2.266568,4.52238 6.489654,4.81922 1.91165,0.13429 4.67545,-0.11022 11.4454,-1.01234 7.47676,-0.99643 11.43024,-0.92625 16.33688,0.28993 2.56317,0.63532 2.36066,0.41193 2.78014,3.06695 0.69587,4.40455 0.16764,10.0009 -1.38495,14.67547 -0.28651,0.86255 -1.38004,3.37672 -2.43007,5.58704 -2.08592,4.3908 -2.86109,6.42207 -3.47877,9.1157 -1.05531,4.60217 -1.46071,11.54349 -0.94315,16.14927 0.39209,3.48939 0.39281,3.8404 0.009,4.22455 -0.38611,0.38609 -0.9228,0.37229 -3.06136,-0.0787 z M 81.07609,231.61459 c 2.104493,-4.85448 2.85274,-6.91604 3.63707,-10.02089 1.060767,-4.19912 1.394885,-8.80189 0.800934,-11.03356 -0.383675,-1.44159 -1.220476,-2.73133 -2.234563,-3.44405 -1.182772,-0.83128 -2.801345,-0.83871 -4.291025,-0.0185 -3.423343,1.88219 -5.464566,6.36446 -5.675148,12.46191 -0.08333,2.41292 -0.03392,3.15363 0.326873,4.90092 0.893045,4.32488 2.786758,9.201 4.451053,11.46108 0.635997,0.86364 0.734223,0.92979 0.873371,0.58811 0.08622,-0.21186 1.036375,-2.41398 2.111435,-4.89386 z M 55.846499,179.9779 c 0.614779,-0.23768 1.386673,-0.68332 1.71532,-0.99032 0.4993,-0.46641 0.597542,-0.70712 0.597542,-1.46409 0,-0.78837 -0.10447,-1.01926 -0.80515,-1.7794 -1.510849,-1.63907 -4.649996,-2.60679 -7.60463,-2.34429 -2.905515,0.25814 -6.509836,1.35517 -9.58069,2.91605 -2.313782,1.17608 -2.315798,1.1815 -0.626113,1.6853 2.443117,0.72847 7.450833,1.9877 9.010789,2.26582 2.232252,0.39802 5.890825,0.25298 7.292932,-0.28907 z m 20.106309,-23.15754 c 2.722926,-0.44187 7.291214,-2.3492 12.29817,-5.13469 3.218042,-1.79026 11.145278,-6.42991 11.370124,-6.65471 0.203731,-0.20376 -0.801913,-0.13221 -3.571429,0.25342 -2.978686,0.41484 -6.709349,1.65738 -10.33681,3.44275 -1.807613,0.88969 -2.5071,0.99859 -2.619686,0.40781 -0.0938,-0.49213 4.577059,-5.07305 6.688945,-6.56018 2.880203,-2.02812 7.604551,-4.24427 13.542128,-6.35249 1.19788,-0.42531 2.31027,-0.82432 2.472,-0.88667 0.36624,-0.14124 -2.47383,-1.26627 -4.60709,-1.82502 -4.233847,-1.10893 -9.351696,-0.9711 -15.290621,0.41182 -6.583662,1.53306 -12.635379,5.29947 -15.57371,9.69265 -1.5061,2.25181 -1.852492,3.32828 -1.854178,5.7622 -0.0016,2.30162 0.35002,3.5774 1.464706,5.3145 0.738629,1.15105 1.511891,1.73791 2.718713,2.06334 1.123999,0.3031 1.756194,0.31561 3.298738,0.0653 z M 103.4119,106.8373 c 1.91919,-5.15038 2.58039,-8.219028 2.58039,-11.975538 0,-2.53953 -0.35381,-4.78749 -0.97428,-6.19016 -0.86652,-1.95892 -2.54538,-3.38293 -4.00144,-3.39403 -0.80763,-0.006 -2.096416,1.35397 -2.689358,2.83822 -0.423567,1.06028 -0.469472,1.46608 -0.465712,4.11677 0.0051,3.51127 0.24266,4.60341 2.64772,12.166168 0.85929,2.70206 1.56234,5.0354 1.56234,5.18518 0,0.5996 0.39528,-0.21047 1.34034,-2.74661 z m 22.20239,-12.791398 c 0.34893,-1.41683 0.30478,-3.54345 -0.1028,-4.94992 -0.38392,-1.32491 -1.02167,-2.56154 -2.93189,-5.68506 -1.69341,-2.76904 -2.75534,-4.99417 -3.07584,-6.44498 -0.23362,-1.05758 -0.22529,-1.17332 0.10165,-1.41235 0.30322,-0.22172 0.47528,-0.19956 1.15941,0.14946 3.37774,1.7232 5.7678,5.13535 6.99582,9.98758 0.88587,3.50035 0.75813,3.18812 1.15677,2.82734 1.53327,-1.38759 2.39898,-9.12213 1.49185,-13.32866 -1.50054,-6.95829 -5.5032,-11.193354 -11.7405,-12.42217 -1.30039,-0.256192 -1.81462,-0.268452 -3.1424,-0.07493 -3.61885,0.527454 -6.43714,2.91298 -7.71387,6.5294 -0.68685,1.94553 -0.84299,5.14001 -0.35782,7.32074 1.25008,5.6189 5.86398,11.697 11.24081,14.80804 1.21125,0.70083 3.10501,1.81517 4.20832,2.4763 1.10333,0.66114 2.10752,1.21249 2.23155,1.22523 0.12411,0.0127 0.33955,-0.43997 0.47896,-1.00603 z"
       id="path8744" />
  </g>
  <g
     inkscape:label="Layer 1"
     inkscape:groupmode="layer"
     id="layer1"
     style="display:none">
    <path
       id="path2505"
       style="fill:none;stroke:#000000;stroke-width:0.264583px;stroke-linecap:butt;stroke-linejoin:miter;stroke-opacity:1"
       d="m 97.836849,104.95685 c -0.152898,-0.22565 1.803008,-2.31981 4.290251,-4.39712 3.48396,-2.909733 7.45502,-6.507656 5.53387,-8.943169 -2.69314,-3.414192 -3.13985,-5.365666 -2.5104,-5.167003 0.62944,0.198659 3.60316,1.998072 3.51309,5.298141 0.80882,1.1964 1.37675,-0.629765 1.49856,-5.223143 0.0336,-1.26634 -1.10599,-3.579952 -1.41418,-3.579952 -0.30818,0 -2.68301,-3.517292 -5.99545,-2.320203 -3.312449,1.197092 -6.989232,7.56252 3.93005,13.82422 4.66292,2.673968 6.63583,6.415849 8.67201,9.069029 2.732,3.55983 4.76136,5.77306 5.76827,6.66582 1.75737,1.55814 8.95913,7.64064 10.94499,8.04668 1.98587,0.40604 6.90972,1.09894 5.67422,-1.22518 -1.2355,-2.32412 -6.64153,-4.13285 -7.65834,-4.35534 -1.01682,-0.22249 -8.8488,-3.37883 -15.0831,-2.88379 -6.23429,0.49504 -21.123053,8.11024 -23.026074,9.45668 -2.252562,1.59374 -11.033613,5.31015 -8.756589,-3.10545 0.404372,-1.49451 1.838735,-2.20962 2.989442,-3.06089 5.567146,-4.11847 16.195451,-1.36429 12.829581,-0.86022 -4.064621,0.60871 -10.182468,6.16502 -9.140612,5.55584 1.040933,-0.60864 7.488312,-3.27165 11.811692,-0.35458 4.32339,2.91707 8.16642,8.61268 7.08449,12.18056 -0.51536,1.69951 -3.73546,-0.0987 -7.23761,-2.30221 -1.987045,-1.25023 -4.064465,-2.39244 -6.380449,-2.25214 -5.857949,0.35486 -3.958847,6.61789 -0.202499,5.80998 3.758133,-0.8083 8.562128,-0.0372 9.928538,0.77143 0.64906,0.38409 2.80878,2.05406 3.2288,2.47698 2.04429,2.05838 2.05328,1.92656 4.03487,5.14646 0.63535,1.03239 -4.57449,-3.03837 -7.73539,-3.28181 -1.71658,-0.1322 -2.41231,-0.7843 -4.0996,-0.66397 -0.765792,0.0546 -1.680697,-0.1507 -3.120827,0.39051 -3.838802,1.44264 -2.521884,3.92537 -2.023317,4.40788 10.118474,3.03511 20.045974,-5.93874 13.905894,10.04602 -2.86262,6.69293 -1.77608,12.91122 -1.77608,12.91122 0,0 -18.092837,-3.35642 -19.315556,-6.09393 -1.222721,-2.73751 -1.764397,-3.25745 -2.909414,-7.85432 -1.208015,-4.84979 6.223369,-10.61001 5.534814,-2.77206 -0.677809,7.71563 -4.313857,12.31777 -4.068646,12.39653 0,0 -11.29003,-6.96408 -11.586692,-9.69825 -0.296658,-2.73418 -0.845917,-3.80754 0.813398,-5.48601 1.645535,-1.66453 9.217574,-6.85348 6.254867,-6.45333 -5.138755,0.69405 -12.059756,8.38996 -12.450396,8.12357 -1.199621,-0.81806 -3.78871,-11.2398 -3.302816,-11.89287 3.799314,-4.74272 9.15822,-5.88573 11.447174,-4.27807 4.865122,4.6835 -8.91521,1.16142 -10.880061,0.89956 0.330846,-0.15595 1.548429,-5.41123 7.277814,-8.39112 5.729385,-2.97988 12.435964,9.16828 12.435964,9.16828 0,0 7.727368,22.02217 16.1294,23.48624 M 82.594682,90.651927 c 0.0939,0.03003 0.14356,1.38648 -0.09873,1.700077 -0.24229,0.313597 -2.678454,1.280057 -3.561739,1.111269 -0.883287,-0.168786 -7.903725,-1.5362 -8.881715,0.148712 -0.977993,1.684911 -1.046131,1.625772 -0.02426,9.170995 1.021877,7.54523 -0.543038,8.61549 0.06726,8.67714 0.551978,-0.29192 5.786687,-1.87704 12.347991,-1.36465 6.254291,0.48842 6.395526,-1.39097 6.617528,-0.97516 0.191979,0.35958 -4.858736,-13.488622 -1.500968,-14.920479 3.479611,-1.483815 3.494881,13.341549 2.752391,13.834679 -1.049014,0.69671 3.951456,-2.52872 4.204917,-2.40927 0.54353,0.25615 2.683111,-2.9676 3.957458,-6.592247 1.380432,-3.926382 1.774415,-8.308565 -1.191448,-8.850072 -4.558572,-0.832305 1.438412,13.947929 0.553484,14.773929 m -21.150199,0.6609 c 0,0 0.02553,-3.10357 3.097422,-7.535765 3.071894,-4.432191 7.241386,-8.282906 7.241386,-8.282906 l 8.786598,-7.1859 2.072691,-2.792476 c 0,0 0.972486,-3.017869 0.271317,-3.912669 -0.70117,-0.8948 -0.647684,-1.697096 -3.023807,-3.700724 -2.376122,-2.003629 -4.81907,-1.778582 -4.81907,-1.778582 0,0 3.060212,7.041286 1.355397,8.755715 -0.539969,0.543014 -3.771942,-3.967779 -2.939046,-7.331256 0.42648,-1.72225 -3.488962,0.05628 -6.806372,1.483451 -2.425814,1.043601 -4.552441,1.604725 -4.325281,1.93863 0.97984,1.440276 8.483909,5.720528 6.805976,9.08279 -0.914589,1.832665 -7.619949,-6.291114 -7.619924,-6.096672 -1.839527,0.141377 -7.203488,9.484098 -6.829594,13.191438 0.115383,1.144077 1.005156,0.188759 2.546211,-0.523887 2.450146,-1.133045 8.155937,-4.2073 10.094127,-0.27701" />
  </g>
</svg>
